{"glyphs":{"0":{"ha":793,"x_min":50,"x_max":743,"o":"m 50 501 q 50 629 50 501 q 135 882 50 758 q 393 1007 219 1007 q 655 877 567 1007 q 743 491 743 747 q 658 111 743 236 q 399 -14 573 -14 q 137 115 224 -14 q 50 501 50 244 m 501 758 q 395 838 469 838 q 290 758 321 838 q 258 495 258 677 q 290 234 258 313 q 395 155 321 155 q 502 236 469 155 q 534 497 534 316 q 501 758 534 679 z "},"1":{"ha":793,"x_min":82,"x_max":574,"o":"m 574 0 l 364 0 l 364 574 l 366 667 l 370 771 q 297 703 317 719 l 183 611 l 82 737 l 401 991 l 574 991 l 574 0 z "},"2":{"ha":793,"x_min":53,"x_max":749,"o":"m 412 1006 q 634 931 547 1006 q 721 741 721 857 q 721 737 721 739 q 697 609 721 669 q 624 488 673 550 q 444 306 575 426 l 317 186 l 317 176 l 749 176 l 749 0 l 56 0 l 56 146 l 304 397 q 449 554 415 510 q 498 635 483 598 q 513 713 513 672 q 480 801 513 771 q 392 831 448 831 q 167 729 290 831 l 53 864 q 174 952 127 927 q 407 1006 274 1006 q 412 1006 410 1006 z "},"3":{"ha":793,"x_min":53,"x_max":739,"o":"m 378 1006 q 621 944 532 1006 q 710 770 710 882 q 654 612 710 677 q 496 522 597 547 l 496 518 q 677 445 616 503 q 739 289 739 387 q 635 65 739 146 q 339 -14 531 -14 q 53 40 177 -14 l 53 218 q 317 153 183 153 q 470 188 421 153 q 519 297 519 224 q 463 400 519 370 q 281 429 407 429 l 205 429 l 205 590 l 282 590 q 452 621 399 590 q 504 724 504 651 q 363 836 504 836 q 151 764 262 836 l 54 908 q 378 1006 190 1006 z "},"4":{"ha":793,"x_min":24,"x_max":771,"o":"m 652 368 l 771 368 l 771 205 l 652 205 l 652 0 l 447 0 l 447 205 l 24 205 l 24 351 l 458 991 l 652 991 l 652 368 m 447 368 l 447 536 q 450 652 447 570 q 456 751 453 735 l 450 751 q 390 643 422 690 l 208 368 l 447 368 z "},"5":{"ha":793,"x_min":67,"x_max":730,"o":"m 662 814 l 309 814 l 290 619 l 314 624 q 416 633 357 633 q 645 553 560 633 q 730 332 730 472 q 628 76 730 165 q 335 -14 525 -14 q 67 40 170 -14 l 67 221 q 194 174 123 192 q 328 157 265 157 q 519 314 519 157 q 321 464 519 464 q 242 456 288 464 q 171 441 197 449 l 87 486 l 125 991 l 662 991 l 662 814 z "},"6":{"ha":793,"x_min":49,"x_max":749,"o":"m 465 644 q 673 561 598 644 q 749 325 749 478 q 659 79 749 171 q 411 -14 570 -14 q 407 -14 409 -14 q 146 101 243 -14 q 49 416 49 216 q 49 421 49 418 q 173 859 49 715 q 546 1003 297 1003 q 679 993 631 1003 l 679 825 q 559 839 617 839 q 281 710 349 839 q 241 529 248 644 l 250 529 q 465 644 317 644 m 546 323 q 546 362 546 323 q 512 443 546 401 q 412 484 477 484 q 302 442 347 484 q 257 346 257 400 q 299 210 257 266 q 408 154 342 154 q 510 199 474 154 q 546 323 546 244 z "},"7":{"ha":793,"x_min":37,"x_max":749,"o":"m 37 814 l 37 990 l 749 990 l 749 859 l 374 0 l 154 0 l 526 814 l 37 814 z "},"8":{"ha":793,"x_min":49,"x_max":745,"o":"m 79 766 q 168 939 79 873 q 398 1004 256 1004 q 627 940 540 1004 q 714 765 714 875 q 671 629 714 688 q 536 524 629 570 q 695 400 646 465 q 745 257 745 336 q 649 60 745 134 q 394 -14 554 -14 q 142 56 235 -14 q 49 252 49 125 q 95 403 49 338 q 239 518 140 469 q 117 631 155 570 q 79 766 79 692 m 483 824 q 466 837 483 824 q 396 851 450 851 q 310 824 342 851 q 277 753 277 796 q 302 676 277 710 q 397 611 330 644 q 490 674 463 642 q 517 751 517 706 q 483 824 517 796 m 243 264 q 283 173 243 205 q 397 140 323 140 q 510 173 471 140 q 550 262 550 206 q 512 348 550 308 q 387 432 473 387 q 243 264 243 366 z "},"9":{"ha":793,"x_min":45,"x_max":745,"o":"m 323 345 q 119 427 194 345 q 45 665 45 511 q 135 910 45 818 q 382 1003 226 1003 q 386 1003 384 1003 q 647 888 549 1003 q 745 576 745 772 q 745 568 745 572 q 621 131 745 275 q 248 -14 498 -14 q 114 -4 161 -14 l 114 164 q 233 150 171 150 q 406 181 338 150 q 510 278 475 212 q 551 460 546 345 l 543 460 q 451 370 503 395 q 323 345 399 345 m 494 779 q 386 835 452 835 q 284 790 320 835 q 248 666 248 745 q 281 546 248 587 q 380 505 315 505 q 491 547 446 505 q 536 643 536 588 q 494 779 536 723 z "},"\r":{"ha":361,"x_min":0,"x_max":0,"o":""}," ":{"ha":361,"x_min":0,"x_max":0,"o":""},"!":{"ha":397,"x_min":79,"x_max":317,"o":"m 282 329 l 117 329 l 82 991 l 317 991 l 282 329 m 79 98 q 79 126 79 98 q 110 183 79 154 q 198 212 140 212 q 286 182 255 212 q 317 98 317 153 q 285 13 317 43 q 198 -18 254 -18 q 111 12 142 -18 q 79 98 79 42 z "},"\"":{"ha":656,"x_min":90,"x_max":566,"o":"m 252 633 l 118 633 l 90 991 l 279 991 l 252 633 m 538 633 l 404 633 l 376 991 l 566 991 l 538 633 z "},"#":{"ha":897,"x_min":31,"x_max":867,"o":"m 867 714 l 867 572 l 677 572 l 646 415 l 821 415 l 821 275 l 619 275 l 567 0 l 418 0 l 471 275 l 339 275 l 288 0 l 142 0 l 192 275 l 31 275 l 31 415 l 218 415 l 250 572 l 79 572 l 79 714 l 275 714 l 328 990 l 476 990 l 424 714 l 558 714 l 611 990 l 757 990 l 704 714 l 867 714 m 397 572 l 366 415 l 498 415 l 530 572 l 397 572 z "},"$":{"ha":793,"x_min":60,"x_max":741,"o":"m 444 1054 l 444 953 q 725 890 602 945 l 661 732 q 444 785 556 775 l 444 585 q 633 496 577 534 q 714 414 688 459 q 741 310 741 370 q 662 136 741 202 q 444 58 584 71 l 444 -81 l 351 -81 l 351 56 q 61 114 187 58 l 61 293 q 202 242 118 264 q 351 215 286 219 l 351 425 l 306 443 q 115 558 171 496 q 60 714 60 619 q 137 873 60 810 q 351 950 214 937 l 351 1054 l 444 1054 m 264 711 q 283 663 264 682 q 351 623 303 644 l 351 782 q 264 711 264 769 m 536 300 q 515 347 536 327 q 444 389 493 367 l 444 220 q 536 300 536 235 z "},"%":{"ha":1251,"x_min":43,"x_max":1208,"o":"m 277 1006 q 453 925 391 1006 q 514 693 514 845 q 454 462 514 541 q 279 383 394 383 q 103 464 164 383 q 43 696 43 545 q 277 1006 43 1006 m 431 0 l 268 0 l 818 991 l 981 991 l 431 0 m 278 864 q 229 823 244 864 q 214 694 214 781 q 229 566 214 608 q 278 524 244 524 q 343 694 343 524 q 278 864 343 864 m 971 610 q 1147 529 1086 610 q 1208 297 1208 449 q 1148 66 1208 145 q 973 -12 1088 -12 q 798 68 859 -12 q 737 300 737 149 q 971 610 737 610 m 972 468 q 923 427 939 468 q 908 298 908 385 q 923 170 908 212 q 972 127 939 127 q 1038 298 1038 127 q 972 468 1038 468 z "},"&":{"ha":1042,"x_min":56,"x_max":1042,"o":"m 708 77 q 414 -14 579 -14 q 152 63 249 -14 q 56 268 56 139 q 97 426 56 361 q 237 549 138 492 q 163 661 186 608 q 140 777 140 714 q 219 943 140 880 q 428 1006 298 1006 q 632 947 557 1006 q 708 790 708 889 q 661 642 708 709 q 510 515 613 575 l 703 328 q 786 532 751 407 l 1002 532 q 935 352 977 439 q 838 199 892 265 l 1042 0 l 786 0 l 708 77 m 517 766 q 517 785 517 766 q 493 825 517 804 q 426 846 469 846 q 358 824 384 846 q 332 762 332 802 q 396 631 332 703 q 487 696 458 665 q 517 766 517 728 m 273 288 q 317 195 273 229 q 429 160 361 160 q 583 201 515 160 l 358 425 q 295 360 316 393 q 273 288 273 328 z "},"'":{"ha":370,"x_min":90,"x_max":279,"o":"m 252 633 l 118 633 l 90 991 l 279 991 l 252 633 z "},"(":{"ha":471,"x_min":56,"x_max":429,"o":"m 285 705 q 261 627 285 705 q 236 382 236 549 q 286 60 236 215 q 428 -220 336 -95 l 260 -220 q 108 50 160 -104 q 56 382 56 203 q 108 717 56 560 q 260 991 161 873 l 429 991 q 285 705 334 862 z "},")":{"ha":471,"x_min":41,"x_max":415,"o":"m 211 991 q 363 714 311 871 q 415 380 415 557 q 363 48 415 202 q 211 -220 311 -105 l 43 -220 q 185 61 135 -94 q 235 382 235 216 q 185 705 235 549 q 41 991 136 862 l 211 991 z "},"*":{"ha":757,"x_min":43,"x_max":714,"o":"m 439 806 l 692 876 l 714 705 l 484 689 l 635 488 l 481 406 l 375 618 l 282 407 l 122 488 l 272 689 l 43 707 l 69 876 l 317 806 l 289 1055 l 467 1055 l 439 806 z "},"+":{"ha":793,"x_min":60,"x_max":733,"o":"m 471 564 l 733 564 l 733 415 l 471 415 l 471 154 l 322 154 l 322 415 l 60 415 l 60 564 l 322 564 l 322 828 l 471 828 l 471 564 z "},",":{"ha":403,"x_min":43,"x_max":311,"o":"m 301 161 l 311 146 q 192 -179 275 7 l 43 -179 q 111 161 87 3 l 301 161 z "},"-":{"ha":447,"x_min":41,"x_max":406,"o":"m 406 288 l 41 288 l 41 457 l 406 457 l 406 288 z "},".":{"ha":396,"x_min":79,"x_max":317,"o":"m 79 98 q 79 126 79 98 q 110 183 79 154 q 198 212 140 212 q 286 182 255 212 q 317 98 317 153 q 285 13 317 43 q 198 -18 254 -18 q 111 12 142 -18 q 79 98 79 42 z "},"/":{"ha":574,"x_min":9,"x_max":567,"o":"m 197 0 l 9 0 l 379 991 l 567 991 l 197 0 z "},":":{"ha":396,"x_min":79,"x_max":317,"o":"m 199 772 q 286 742 255 772 q 317 657 317 712 q 285 572 317 602 q 198 542 254 542 q 111 572 142 542 q 79 656 79 602 q 199 772 79 772 m 79 98 q 79 126 79 98 q 110 183 79 154 q 198 212 140 212 q 286 182 255 212 q 317 98 317 153 q 285 13 317 43 q 198 -18 254 -18 q 111 12 142 -18 q 79 98 79 42 z "},";":{"ha":403,"x_min":43,"x_max":317,"o":"m 199 772 q 286 742 255 772 q 317 657 317 712 q 285 572 317 602 q 198 542 254 542 q 111 572 142 542 q 79 656 79 602 q 199 772 79 772 m 301 161 l 311 146 q 192 -179 275 7 l 43 -179 q 111 161 87 3 l 301 161 z "},"<":{"ha":793,"x_min":60,"x_max":733,"o":"m 733 705 l 269 490 l 733 300 l 733 138 l 60 435 l 60 532 l 733 868 l 733 705 z "},"=":{"ha":793,"x_min":60,"x_max":733,"o":"m 733 546 l 60 546 l 60 694 l 733 694 l 733 546 m 733 283 l 60 283 l 60 432 l 733 432 l 733 283 z "},">":{"ha":793,"x_min":60,"x_max":733,"o":"m 733 532 l 733 435 l 60 138 l 60 300 l 524 490 l 60 705 l 60 868 l 733 532 z "},"?":{"ha":662,"x_min":4,"x_max":629,"o":"m 325 1006 q 547 939 464 1006 q 629 760 629 871 q 596 631 629 684 q 467 509 562 578 q 384 435 401 460 q 367 370 367 410 l 367 329 l 187 329 l 187 379 q 215 493 187 444 q 316 594 243 541 q 411 677 389 646 q 433 751 433 709 q 401 816 433 793 q 310 839 369 839 q 78 772 209 839 l 4 921 q 325 1006 156 1006 m 165 98 q 165 126 165 98 q 196 183 165 154 q 284 212 227 212 q 372 182 341 212 q 403 98 403 153 q 371 13 403 43 q 284 -18 340 -18 q 197 12 228 -18 q 165 98 165 42 z "},"@":{"ha":1246,"x_min":69,"x_max":1177,"o":"m 615 -104 q 213 31 358 -104 q 69 408 69 167 q 143 712 69 576 q 352 927 216 849 q 665 1004 488 1004 q 932 943 815 1004 q 1113 770 1049 882 q 1177 510 1177 657 q 1177 506 1177 508 q 1146 331 1177 411 q 1058 204 1115 251 q 931 158 1001 158 q 925 158 928 158 q 837 182 876 158 q 781 245 798 206 l 770 245 q 580 158 696 158 q 394 230 463 158 q 325 428 325 302 q 416 658 325 571 q 653 746 506 746 q 780 734 709 746 q 897 708 852 723 l 882 376 q 933 282 882 282 q 1002 346 977 282 q 1028 511 1028 410 q 1028 517 1028 515 q 983 705 1028 622 q 856 832 937 787 q 675 876 774 876 q 666 876 671 876 q 428 820 530 876 q 273 656 327 764 q 220 412 220 552 q 320 125 220 225 q 610 25 420 25 q 937 87 767 25 l 937 -43 q 615 -104 793 -104 m 661 623 q 529 570 576 623 q 482 425 482 517 q 599 282 482 282 q 692 326 661 282 q 730 465 724 369 l 739 615 q 661 623 703 623 z "},"A":{"ha":958,"x_min":0,"x_max":958,"o":"m 958 0 l 732 0 l 659 236 l 298 236 l 227 0 l 0 0 l 350 996 l 607 996 l 958 0 m 610 412 l 497 775 q 479 842 484 820 q 351 412 457 755 l 610 412 z "},"B":{"ha":933,"x_min":125,"x_max":860,"o":"m 125 991 l 433 991 q 739 931 643 991 q 835 741 835 871 q 793 595 835 652 q 682 526 751 537 l 682 519 q 818 442 775 499 q 860 288 860 385 q 762 76 860 152 q 496 0 665 0 l 125 0 l 125 991 m 335 819 l 335 599 l 457 599 q 581 625 543 599 q 619 710 619 652 q 578 794 619 769 q 446 819 536 819 l 335 819 m 335 432 l 335 174 l 472 174 q 600 207 559 174 q 642 309 642 240 q 465 432 642 432 l 335 432 z "},"C":{"ha":885,"x_min":81,"x_max":836,"o":"m 526 -14 q 195 117 310 -14 q 81 494 81 248 q 81 501 81 498 q 137 766 81 650 q 298 944 193 882 q 537 1006 402 1006 q 546 1006 542 1006 q 836 936 692 1006 l 768 765 q 546 831 631 831 q 362 742 427 831 q 297 493 297 652 q 546 161 297 161 q 799 214 650 161 l 799 37 q 526 -14 677 -14 z "},"D":{"ha":1028,"x_min":125,"x_max":947,"o":"m 125 991 l 436 991 q 813 863 679 991 q 947 505 947 735 q 808 130 947 260 q 406 0 669 0 l 125 0 l 125 991 m 335 819 l 335 174 l 425 174 q 729 500 729 174 q 447 819 729 819 l 335 819 z "},"E":{"ha":778,"x_min":125,"x_max":696,"o":"m 696 819 l 335 819 l 335 602 l 670 602 l 670 429 l 335 429 l 335 174 l 696 174 l 696 0 l 125 0 l 125 991 l 696 991 l 696 819 z "},"F":{"ha":762,"x_min":125,"x_max":693,"o":"m 693 819 l 332 819 l 332 564 l 667 564 l 667 392 l 332 392 l 332 0 l 125 0 l 125 991 l 693 991 l 693 819 z "},"G":{"ha":1006,"x_min":81,"x_max":895,"o":"m 895 557 l 895 43 q 542 -14 721 -14 q 199 118 318 -14 q 81 494 81 250 q 218 871 81 737 q 599 1006 355 1006 q 893 945 751 1006 l 823 777 q 597 831 713 831 q 379 739 461 831 q 297 489 297 647 q 363 247 297 332 q 555 161 429 161 q 689 175 619 161 l 689 382 l 501 382 l 501 557 l 895 557 z "},"H":{"ha":1063,"x_min":125,"x_max":937,"o":"m 937 0 l 728 0 l 728 428 l 335 428 l 335 0 l 125 0 l 125 991 l 335 991 l 335 603 l 728 603 l 728 991 l 937 991 l 937 0 z "},"I":{"ha":460,"x_min":125,"x_max":335,"o":"m 335 0 l 125 0 l 125 991 l 335 991 l 335 0 z "},"J":{"ha":460,"x_min":-103,"x_max":335,"o":"m 335 991 l 335 63 q 255 -201 335 -111 q 21 -292 176 -292 q -103 -277 -50 -292 l -103 -102 q -4 -115 -47 -115 q 95 -73 64 -115 q 125 62 125 -30 l 125 991 l 335 991 z "},"K":{"ha":922,"x_min":125,"x_max":922,"o":"m 335 0 l 125 0 l 125 991 l 335 991 l 335 538 l 418 654 l 686 991 l 920 991 l 574 553 l 922 0 l 684 0 l 424 418 l 335 354 l 335 0 z "},"L":{"ha":785,"x_min":125,"x_max":737,"o":"m 335 174 l 737 174 l 737 0 l 125 0 l 125 991 l 335 991 l 335 174 z "},"M":{"ha":1310,"x_min":125,"x_max":1185,"o":"m 1185 0 l 989 0 l 989 469 q 989 545 989 517 q 999 777 990 572 l 993 777 l 737 0 l 545 0 l 306 778 l 300 778 q 313 461 313 547 l 313 0 l 125 0 l 125 991 l 411 991 l 646 233 l 650 233 l 899 991 l 1185 991 l 1185 0 z "},"N":{"ha":1129,"x_min":125,"x_max":1004,"o":"m 1004 0 l 737 0 l 306 750 l 300 750 q 313 467 313 557 l 313 0 l 125 0 l 125 991 l 390 991 l 821 249 l 825 249 q 815 522 815 442 l 815 991 l 1004 991 l 1004 0 z "},"O":{"ha":1105,"x_min":81,"x_max":1025,"o":"m 203 119 q 142 185 203 119 q 81 498 81 251 q 203 877 81 746 q 554 1007 326 1007 q 903 876 782 1007 q 1025 497 1025 744 q 903 119 1025 251 q 553 -14 781 -14 q 203 119 325 -14 m 554 832 q 365 748 429 832 q 301 497 301 663 q 553 163 301 163 q 804 497 804 163 q 554 832 804 832 z "},"P":{"ha":872,"x_min":125,"x_max":810,"o":"m 125 991 l 441 991 q 716 913 623 991 q 810 679 810 836 q 709 437 810 522 q 425 353 609 353 l 335 353 l 335 0 l 125 0 l 125 991 m 335 819 l 335 525 l 404 525 q 597 674 597 525 q 557 784 597 749 q 431 819 517 819 l 335 819 z "},"Q":{"ha":1105,"x_min":81,"x_max":1025,"o":"m 553 -14 q 203 119 325 -14 q 81 498 81 251 q 203 877 81 746 q 554 1007 326 1007 q 903 876 782 1007 q 1025 497 1025 744 q 963 204 1025 322 q 781 31 901 85 l 1019 -236 l 750 -236 l 568 -14 l 553 -14 m 554 832 q 365 748 429 832 q 301 497 301 663 q 553 163 301 163 q 804 497 804 163 q 554 832 804 832 z "},"R":{"ha":917,"x_min":125,"x_max":917,"o":"m 125 991 l 414 991 q 712 918 615 991 q 810 694 810 845 q 762 539 810 607 q 625 432 713 471 q 917 0 864 75 l 684 0 l 447 380 l 335 380 l 335 0 l 125 0 l 125 991 m 335 819 l 335 551 l 403 551 q 550 585 503 551 q 597 688 597 618 q 550 789 597 759 q 399 819 502 819 l 335 819 z "},"S":{"ha":765,"x_min":63,"x_max":710,"o":"m 63 241 q 235 178 166 196 q 367 160 304 160 q 467 186 431 160 q 504 265 504 213 q 488 316 504 294 q 440 360 473 338 q 314 427 408 382 q 175 510 220 471 q 75 726 75 596 q 164 930 75 855 q 411 1006 254 1006 q 705 936 543 1006 l 637 772 q 508 817 561 804 q 400 831 455 831 q 313 803 346 831 q 281 730 281 776 q 293 682 281 703 q 334 642 306 661 q 468 572 362 623 q 658 439 606 507 q 710 275 710 374 q 613 63 710 142 q 351 -14 516 -14 q 63 46 185 -14 l 63 241 z "},"T":{"ha":804,"x_min":28,"x_max":777,"o":"m 777 817 l 507 817 l 507 0 l 297 0 l 297 817 l 28 817 l 28 991 l 777 991 l 777 817 z "},"U":{"ha":1050,"x_min":118,"x_max":932,"o":"m 932 991 l 932 350 q 932 346 932 348 q 822 85 932 183 q 528 -14 712 -14 q 521 -14 525 -14 q 224 85 330 -14 q 118 353 118 183 l 118 991 l 328 991 l 328 385 q 374 216 328 269 q 525 163 421 163 q 675 216 629 163 q 722 386 722 270 l 722 991 l 932 991 z "},"V":{"ha":903,"x_min":0,"x_max":903,"o":"m 566 0 l 336 0 l 0 991 l 212 991 l 399 401 q 431 278 416 344 q 452 183 447 213 q 503 401 459 246 l 690 991 l 903 991 l 566 0 z "},"W":{"ha":1343,"x_min":0,"x_max":1343,"o":"m 1090 0 l 851 0 l 717 521 q 691 635 709 553 q 670 753 673 730 q 650 634 667 721 q 625 519 633 547 l 492 0 l 253 0 l 0 991 l 207 991 l 334 450 q 382 191 366 309 q 401 314 386 230 q 428 436 416 397 l 572 991 l 771 991 l 916 436 q 940 317 926 393 q 961 191 954 241 q 984 332 970 256 q 1010 450 999 408 l 1136 991 l 1343 991 l 1090 0 z "},"X":{"ha":926,"x_min":0,"x_max":926,"o":"m 591 500 l 926 0 l 686 0 l 456 375 l 225 0 l 0 0 l 329 511 l 21 991 l 253 991 l 467 635 l 675 991 l 903 991 l 591 500 z "},"Y":{"ha":867,"x_min":0,"x_max":867,"o":"m 538 0 l 329 0 l 329 379 l 0 991 l 228 991 l 433 583 l 640 991 l 867 991 l 538 386 l 538 0 z "},"Z":{"ha":804,"x_min":33,"x_max":771,"o":"m 771 174 l 771 0 l 33 0 l 33 136 l 509 818 l 46 818 l 46 991 l 758 991 l 758 856 l 283 174 l 771 174 z "},"[":{"ha":460,"x_min":97,"x_max":425,"o":"m 425 848 l 273 848 l 273 -77 l 425 -77 l 425 -220 l 97 -220 l 97 991 l 425 991 l 425 848 z "},"\\":{"ha":574,"x_min":8,"x_max":566,"o":"m 566 0 l 378 0 l 8 991 l 196 991 l 566 0 z "},"]":{"ha":460,"x_min":35,"x_max":363,"o":"m 363 -220 l 35 -220 l 35 -77 l 186 -77 l 186 848 l 35 848 l 35 991 l 363 991 l 363 -220 z "},"^":{"ha":739,"x_min":5,"x_max":736,"o":"m 736 353 l 574 353 l 355 789 l 165 353 l 5 353 l 302 997 l 400 997 l 736 353 z "},"_":{"ha":571,"x_min":-3,"x_max":574,"o":"m 574 -220 l -3 -220 l -3 -125 l 574 -125 l 574 -220 z "},"`":{"ha":843,"x_min":225,"x_max":616,"o":"m 225 1064 l 457 1064 q 616 860 503 992 l 616 842 l 479 842 q 351 941 433 874 q 225 1050 269 1008 l 225 1064 z "},"a":{"ha":839,"x_min":58,"x_max":734,"o":"m 129 705 q 417 774 260 774 q 654 707 574 774 q 734 505 734 640 l 734 0 l 590 0 l 550 103 l 545 103 q 437 12 492 37 q 293 -14 382 -14 q 121 49 184 -14 q 58 229 58 111 q 142 404 58 346 q 397 468 225 462 l 529 472 l 529 505 q 411 621 529 621 q 197 566 320 621 l 129 705 m 271 225 q 371 138 271 138 q 486 179 444 138 q 529 289 529 220 l 529 351 l 449 349 q 315 316 359 346 q 271 225 271 286 z "},"b":{"ha":879,"x_min":109,"x_max":817,"o":"m 315 1055 l 315 810 q 307 659 315 763 l 315 659 q 526 772 387 772 q 741 667 665 772 q 817 378 817 564 q 738 90 817 193 q 526 -14 659 -14 q 315 83 392 -14 l 301 83 l 267 0 l 109 0 l 109 1055 l 315 1055 m 315 382 q 351 207 315 260 q 467 154 387 154 q 568 213 531 154 q 606 383 606 273 q 568 550 606 493 q 464 607 531 607 q 352 559 387 607 q 315 404 317 512 l 315 382 z "},"c":{"ha":714,"x_min":62,"x_max":670,"o":"m 416 -14 q 62 375 62 -14 q 159 670 62 568 q 435 772 255 772 q 670 721 567 772 l 610 561 q 435 606 500 606 q 273 380 273 606 q 435 154 273 154 q 647 220 549 154 l 647 43 q 545 -1 594 9 q 416 -14 494 -14 z "},"d":{"ha":879,"x_min":62,"x_max":771,"o":"m 771 0 l 612 0 l 572 98 l 564 98 q 349 -14 494 -14 q 138 90 214 -14 q 62 379 62 193 q 140 668 62 564 q 357 772 218 772 q 572 661 497 772 l 579 661 q 564 812 564 748 l 564 1055 l 771 1055 l 771 0 m 578 376 q 540 551 578 498 q 418 604 502 604 q 310 545 348 604 q 272 375 272 486 q 310 208 272 264 q 425 151 349 151 q 538 197 500 151 q 578 354 575 243 l 578 376 z "},"e":{"ha":821,"x_min":62,"x_max":761,"o":"m 718 40 q 452 -14 614 -14 q 165 87 269 -14 q 62 376 62 189 q 157 667 62 564 q 417 772 252 772 q 671 681 582 772 q 761 428 761 590 l 761 328 l 272 328 q 325 190 275 239 q 461 140 374 140 q 718 200 590 140 l 718 40 m 567 465 q 527 583 566 541 q 423 625 489 625 q 320 584 357 625 q 277 465 282 543 l 567 465 z "},"f":{"ha":538,"x_min":28,"x_max":600,"o":"m 142 814 q 205 1003 142 944 q 410 1063 269 1063 q 600 1031 516 1063 l 547 879 q 437 899 484 899 q 369 873 389 899 q 349 806 349 848 l 349 758 l 528 758 l 528 603 l 349 603 l 349 0 l 142 0 l 142 603 l 28 603 l 28 703 l 142 758 l 142 814 z "},"g":{"ha":785,"x_min":4,"x_max":768,"o":"m 375 157 l 504 157 q 694 103 629 157 q 760 -54 760 49 q 649 -260 760 -187 q 330 -334 538 -334 q 88 -279 172 -334 q 4 -123 4 -224 q 47 -9 4 -55 q 172 57 90 37 q 117 101 141 69 q 93 171 93 133 q 116 237 93 208 q 191 296 140 266 q 96 379 130 322 q 61 513 61 436 q 142 705 61 637 q 372 772 222 772 q 448 767 404 772 q 504 758 492 761 l 768 758 l 768 653 l 650 623 q 682 509 682 570 q 597 318 682 387 q 361 250 513 250 l 323 252 l 293 256 q 261 201 261 231 q 375 157 261 157 m 372 647 q 258 510 258 647 q 287 412 258 447 q 373 376 316 376 q 457 411 429 376 q 485 510 485 446 q 372 647 485 647 m 424 -9 l 317 -9 q 221 -36 260 -9 q 183 -107 183 -64 q 224 -174 183 -150 q 339 -199 266 -199 q 513 -168 450 -199 q 576 -85 576 -138 q 540 -26 576 -43 q 424 -9 504 -9 z "},"h":{"ha":913,"x_min":109,"x_max":808,"o":"m 315 1055 l 315 840 q 311 722 315 808 l 306 661 l 317 661 q 536 772 386 772 q 739 701 669 772 q 808 494 808 629 l 808 0 l 602 0 l 602 443 q 479 607 602 607 q 354 548 393 607 q 315 357 315 489 l 315 0 l 109 0 l 109 1055 l 315 1055 z "},"i":{"ha":424,"x_min":100,"x_max":325,"o":"m 100 954 q 100 1005 100 954 q 212 1055 100 1055 q 325 954 325 1055 q 296 879 325 905 q 212 852 268 852 q 100 954 100 852 m 315 0 l 109 0 l 109 758 l 315 758 l 315 0 z "},"j":{"ha":424,"x_min":-89,"x_max":325,"o":"m 100 954 q 100 1005 100 954 q 212 1055 100 1055 q 325 954 325 1055 q 296 879 325 905 q 212 852 268 852 q 100 954 100 852 m 315 758 l 315 -82 q 245 -268 315 -203 q 47 -334 176 -334 q -89 -317 -33 -334 l -89 -154 q 8 -167 -42 -167 q 109 -52 109 -167 l 109 758 l 315 758 z "},"k":{"ha":861,"x_min":109,"x_max":861,"o":"m 315 0 l 109 0 l 109 1055 l 315 1055 l 315 585 l 304 412 l 307 412 l 397 528 l 610 758 l 843 758 l 542 429 l 861 0 l 623 0 l 404 307 l 315 236 l 315 0 z "},"l":{"ha":424,"x_min":109,"x_max":315,"o":"m 315 0 l 109 0 l 109 1055 l 315 1055 l 315 0 z "},"m":{"ha":1364,"x_min":109,"x_max":1260,"o":"m 999 772 q 1195 705 1130 772 q 1260 494 1260 638 l 1260 0 l 1053 0 l 1053 443 q 1025 566 1053 526 q 939 607 997 607 q 825 552 862 607 q 787 380 787 497 l 787 0 l 581 0 l 581 443 q 553 566 581 526 q 467 607 525 607 q 351 549 387 607 q 315 357 315 490 l 315 0 l 109 0 l 109 758 l 267 758 l 294 661 l 306 661 q 394 743 336 713 q 526 772 452 772 q 757 661 697 772 l 775 661 q 865 743 806 713 q 999 772 924 772 z "},"n":{"ha":913,"x_min":109,"x_max":808,"o":"m 539 772 q 740 701 671 772 q 808 494 808 629 l 808 0 l 602 0 l 602 443 q 572 566 602 526 q 479 607 543 607 q 354 549 393 607 q 315 357 315 490 l 315 0 l 109 0 l 109 758 l 267 758 l 294 661 l 306 661 q 400 744 340 715 q 539 772 461 772 z "},"o":{"ha":860,"x_min":62,"x_max":798,"o":"m 438 772 q 625 725 543 772 q 752 590 707 678 q 798 387 798 501 q 798 380 798 384 q 700 91 798 195 q 428 -14 602 -14 q 422 -14 425 -14 q 235 34 317 -14 q 107 171 153 82 q 62 374 62 260 q 62 380 62 377 q 159 669 62 566 q 432 772 256 772 q 438 772 435 772 m 549 550 q 530 578 549 550 q 429 606 511 606 q 310 551 347 606 q 273 381 273 496 q 311 209 273 266 q 430 153 349 153 q 549 209 512 153 q 586 380 586 265 q 549 550 586 495 z "},"p":{"ha":879,"x_min":109,"x_max":817,"o":"m 315 659 q 526 772 387 772 q 741 668 665 772 q 817 382 817 566 q 738 93 817 199 q 530 -14 659 -14 q 525 -14 528 -14 q 315 83 392 -14 l 304 83 q 315 -26 315 -8 l 315 -334 l 109 -334 l 109 758 l 277 758 l 306 659 l 315 659 m 315 382 q 351 207 315 260 q 467 154 387 154 q 606 383 606 154 q 571 551 606 496 q 461 607 536 607 q 352 559 387 607 q 315 404 317 512 l 315 382 z "},"q":{"ha":879,"x_min":62,"x_max":771,"o":"m 349 -14 q 138 90 215 -14 q 62 378 62 193 q 140 668 62 564 q 355 772 218 772 q 572 661 493 772 l 578 661 l 596 758 l 771 758 l 771 -334 l 564 -334 l 564 -16 q 572 98 564 28 l 564 98 q 349 -14 496 -14 m 578 376 q 541 551 578 498 q 419 604 503 604 q 273 375 273 604 q 310 204 273 260 q 424 149 346 149 q 538 194 501 149 q 578 351 575 239 l 578 376 z "},"r":{"ha":631,"x_min":109,"x_max":602,"o":"m 532 772 q 602 766 574 772 l 586 572 q 525 579 562 579 q 371 528 426 579 q 315 386 315 477 l 315 0 l 109 0 l 109 758 l 265 758 l 296 631 l 306 631 q 401 733 342 696 q 532 772 460 772 z "},"s":{"ha":690,"x_min":62,"x_max":637,"o":"m 321 138 q 433 203 433 138 q 404 256 433 236 q 269 322 374 275 q 140 390 182 359 q 81 461 100 421 q 62 561 62 502 q 141 717 62 662 q 360 772 219 772 q 629 713 501 772 l 567 564 q 454 605 501 591 q 359 619 407 619 q 268 570 268 619 q 298 521 268 542 q 421 463 328 500 q 557 394 515 426 q 637 220 637 333 q 556 47 637 108 q 321 -14 475 -14 q 63 31 167 -14 l 63 201 q 194 156 121 174 q 321 138 266 138 z "},"t":{"ha":603,"x_min":32,"x_max":558,"o":"m 338 758 l 550 758 l 550 603 l 338 603 l 338 237 q 362 173 338 195 q 433 151 386 151 q 558 175 481 151 l 558 21 q 363 -14 481 -14 q 188 48 245 -14 q 131 237 131 111 l 131 603 l 32 603 l 32 690 l 146 760 l 205 920 l 338 920 l 338 758 z "},"u":{"ha":913,"x_min":104,"x_max":804,"o":"m 804 0 l 646 0 l 618 97 l 607 97 q 513 15 574 44 q 374 -14 452 -14 q 173 58 241 -14 q 104 264 104 129 l 104 758 l 311 758 l 311 315 q 341 192 311 233 q 433 151 370 151 q 559 209 520 151 q 597 401 597 267 l 597 758 l 804 758 l 804 0 z "},"v":{"ha":790,"x_min":0,"x_max":790,"o":"m 501 0 l 289 0 l 0 758 l 216 758 l 363 326 q 393 171 387 243 l 397 171 q 428 326 400 235 l 574 758 l 790 758 l 501 0 z "},"w":{"ha":1189,"x_min":14,"x_max":1175,"o":"m 957 0 l 732 0 l 673 265 l 595 600 l 590 600 l 452 0 l 229 0 l 14 758 l 220 758 l 307 422 q 350 174 329 332 l 354 174 q 378 337 357 230 l 389 395 l 482 758 l 710 758 l 799 395 q 833 174 831 219 l 838 174 q 859 306 843 218 q 882 422 875 394 l 972 758 l 1175 758 l 957 0 z "},"x":{"ha":803,"x_min":6,"x_max":796,"o":"m 538 387 l 796 0 l 561 0 l 401 260 l 241 0 l 6 0 l 264 387 l 20 758 l 254 758 l 401 517 l 550 758 l 785 758 l 538 387 z "},"y":{"ha":790,"x_min":0,"x_max":790,"o":"m 153 -334 q 47 -322 101 -334 l 47 -158 q 129 -167 83 -167 q 289 -32 243 -167 l 301 5 l 0 758 l 227 758 l 370 332 q 395 200 387 277 l 399 200 q 428 332 406 267 l 568 758 l 790 758 l 469 -97 q 344 -274 425 -214 q 153 -334 263 -334 z "},"z":{"ha":677,"x_min":37,"x_max":636,"o":"m 636 158 l 636 0 l 37 0 l 37 122 l 389 600 l 58 600 l 58 758 l 624 758 l 624 624 l 282 158 l 636 158 z "},"{":{"ha":547,"x_min":21,"x_max":492,"o":"m 492 991 l 492 839 q 400 814 427 837 q 374 743 374 791 l 374 541 q 215 390 370 414 l 215 382 q 374 238 374 358 l 374 29 q 399 -41 374 -18 q 492 -66 424 -64 l 492 -220 q 260 -177 327 -220 q 195 -31 195 -136 l 195 183 q 150 273 195 242 q 21 304 106 304 l 21 467 q 150 496 106 467 q 195 582 195 526 l 195 803 q 260 949 195 907 q 492 991 327 991 z "},"|":{"ha":765,"x_min":309,"x_max":457,"o":"m 457 -315 l 309 -315 l 309 1051 l 457 1051 l 457 -315 z "},"}":{"ha":547,"x_min":56,"x_max":526,"o":"m 56 991 q 233 974 169 991 q 325 917 298 956 q 353 803 353 878 l 353 581 q 395 495 353 523 q 526 467 437 467 l 526 304 q 396 276 439 304 q 353 183 353 247 l 353 -31 q 325 -145 353 -106 q 233 -202 297 -184 q 56 -220 169 -220 l 56 -66 q 148 -42 121 -64 q 174 29 174 -20 l 174 239 q 214 334 174 298 q 332 382 254 370 l 332 390 q 174 541 178 414 l 174 743 q 149 814 174 791 q 56 839 123 837 l 56 991 z "},"~":{"ha":793,"x_min":60,"x_max":733,"o":"m 559 375 q 472 385 513 375 q 372 418 430 394 q 218 456 283 456 q 139 433 182 456 q 60 374 97 411 l 60 530 q 233 604 130 604 q 414 564 320 604 q 575 524 508 524 q 654 546 612 524 q 733 606 697 568 l 733 449 q 559 375 665 375 z "},"¡":{"ha":397,"x_min":79,"x_max":317,"o":"m 79 643 q 79 670 79 643 q 111 728 79 698 q 198 758 142 758 q 286 728 254 758 q 317 642 317 699 q 286 557 317 586 q 198 528 256 528 q 110 557 141 528 q 79 643 79 587 m 314 -250 l 79 -250 l 114 411 l 279 411 l 314 -250 z "},"¢":{"ha":793,"x_min":97,"x_max":705,"o":"m 503 1006 l 503 899 q 705 848 614 892 l 644 689 q 469 733 536 733 q 348 676 388 733 q 309 504 309 620 q 469 282 309 282 q 570 293 525 282 q 682 334 615 304 l 682 161 q 503 114 597 120 l 503 -14 l 382 -14 l 382 119 q 97 503 97 159 q 168 775 97 679 q 382 893 239 872 l 382 1006 l 503 1006 z "},"£":{"ha":793,"x_min":56,"x_max":766,"o":"m 178 590 l 178 722 q 255 932 178 859 q 470 1006 332 1006 q 739 950 608 1006 l 675 794 q 492 838 570 838 q 410 807 439 838 q 382 721 382 777 l 382 590 l 636 590 l 636 441 l 382 441 l 382 345 q 279 176 382 229 l 766 176 l 766 0 l 56 0 l 56 168 q 152 236 125 197 q 178 343 178 275 l 178 441 l 57 441 l 57 590 l 178 590 z "},"¥":{"ha":793,"x_min":4,"x_max":787,"o":"m 659 485 l 659 364 l 493 364 l 493 271 l 659 271 l 659 150 l 493 150 l 493 0 l 298 0 l 298 150 l 131 150 l 131 271 l 298 271 l 298 364 l 131 364 l 131 485 l 260 485 l 4 991 l 218 991 l 396 583 l 575 991 l 787 991 l 528 485 l 659 485 z "},"¦":{"ha":765,"x_min":309,"x_max":457,"o":"m 457 498 l 309 498 l 309 1051 l 457 1051 l 457 498 m 457 -315 l 309 -315 l 309 237 l 457 237 l 457 -315 z "},"§":{"ha":674,"x_min":72,"x_max":607,"o":"m 309 114 q 440 193 440 114 q 414 251 439 231 q 300 310 388 271 q 129 413 176 359 q 82 546 82 467 q 106 644 82 599 q 172 715 130 688 q 82 873 82 772 q 157 1016 82 962 q 353 1069 233 1069 q 603 1013 472 1069 l 547 884 q 445 925 490 911 q 349 940 400 940 q 273 924 298 940 q 248 876 248 909 q 280 819 248 844 q 392 762 313 793 q 607 530 607 678 q 522 354 607 410 q 607 203 607 300 q 526 46 607 106 q 308 -14 445 -14 q 72 40 170 -14 l 72 180 q 195 133 130 151 q 309 114 260 114 m 233 561 q 275 482 233 517 q 400 414 317 446 q 453 513 453 452 q 419 591 453 559 q 294 656 385 623 q 251 619 269 646 q 233 561 233 592 z "},"¨":{"ha":843,"x_min":189,"x_max":654,"o":"m 214 1020 q 227 1032 214 1020 q 283 1044 239 1044 q 353 1019 328 1044 q 379 953 379 994 q 353 887 379 912 q 284 863 328 863 q 215 886 240 863 q 189 953 189 910 q 214 1020 189 996 m 463 953 q 463 976 463 953 q 489 1021 463 998 q 559 1044 515 1044 q 628 1020 602 1044 q 654 954 654 996 q 628 887 654 911 q 558 863 602 863 q 489 885 515 863 q 463 953 463 908 z "},"©":{"ha":1156,"x_min":67,"x_max":1088,"o":"m 578 -14 q 508 -14 578 -14 q 319 56 437 -14 q 134 244 200 126 q 67 495 67 361 q 136 749 67 629 q 323 938 204 869 q 577 1006 441 1006 q 832 938 713 1006 q 1020 750 951 869 q 1088 496 1088 631 q 1021 244 1088 361 q 837 56 955 126 q 578 -14 718 -14 m 372 137 q 579 82 469 82 q 786 138 690 82 q 937 290 882 194 q 991 497 991 386 q 936 704 991 608 q 784 854 880 800 q 577 909 688 909 q 370 854 467 909 q 219 702 275 798 q 164 495 164 605 q 220 289 164 385 q 372 137 276 193 m 603 178 q 389 262 465 178 q 313 496 313 347 q 387 729 313 645 q 597 812 463 812 q 804 760 699 812 l 754 646 q 609 685 677 685 q 506 635 542 685 q 469 496 469 585 q 607 306 469 306 q 774 346 696 306 l 774 216 q 603 178 692 178 z "},"«":{"ha":854,"x_min":56,"x_max":799,"o":"m 456 616 l 267 380 l 456 144 l 307 63 l 56 371 l 56 389 l 307 697 l 456 616 m 799 616 l 610 380 l 799 144 l 650 63 l 399 371 l 399 389 l 650 697 l 799 616 z "},"¬":{"ha":793,"x_min":60,"x_max":733,"o":"m 733 168 l 585 168 l 585 415 l 60 415 l 60 564 l 733 564 l 733 168 z "},"­":{"ha":447,"x_min":41,"x_max":406,"o":"m 406 288 l 41 288 l 41 457 l 406 457 l 406 288 z "},"®":{"ha":1156,"x_min":67,"x_max":1088,"o":"m 578 -14 q 508 -14 578 -14 q 319 56 437 -14 q 134 244 200 126 q 67 495 67 361 q 136 749 67 629 q 323 938 204 869 q 577 1006 441 1006 q 832 938 713 1006 q 1020 750 951 869 q 1088 496 1088 631 q 1021 244 1088 361 q 837 56 955 126 q 578 -14 718 -14 m 372 137 q 579 82 469 82 q 786 138 690 82 q 937 290 882 194 q 991 497 991 386 q 936 704 991 608 q 784 854 880 800 q 577 909 688 909 q 370 854 467 909 q 219 702 275 798 q 164 495 164 605 q 220 289 164 385 q 372 137 276 193 m 368 806 l 547 806 q 727 759 669 806 q 785 614 785 711 q 688 456 785 498 l 848 184 l 675 184 l 555 414 l 524 414 l 524 184 l 368 184 l 368 806 m 524 692 l 524 528 l 545 528 q 609 547 589 528 q 628 611 628 566 q 609 673 628 655 q 543 692 590 692 l 524 692 z "},"¯":{"ha":694,"x_min":-4,"x_max":699,"o":"m 699 1055 l -4 1055 l -4 1192 l 699 1192 l 699 1055 z "},"°":{"ha":595,"x_min":62,"x_max":532,"o":"m 532 766 q 500 653 532 707 q 415 569 469 600 q 304 538 362 538 q 297 538 300 538 q 130 605 198 538 q 62 771 62 673 q 62 776 62 774 q 94 888 62 834 q 179 974 125 942 q 292 1006 233 1006 q 297 1006 294 1006 q 414 975 360 1006 q 500 888 469 943 q 532 771 532 833 q 532 766 532 768 m 222 846 q 192 772 192 815 q 222 697 192 728 q 297 666 252 666 q 373 698 342 666 q 403 772 403 730 q 372 846 403 814 q 297 878 341 878 q 222 846 254 878 z "},"±":{"ha":793,"x_min":60,"x_max":733,"o":"m 471 606 l 733 606 l 733 457 l 471 457 l 471 196 l 322 196 l 322 457 l 60 457 l 60 606 l 322 606 l 322 869 l 471 869 l 471 606 m 733 0 l 60 0 l 60 149 l 733 149 l 733 0 z "},"²":{"ha":526,"x_min":32,"x_max":476,"o":"m 260 1006 q 406 961 353 1006 q 460 836 460 916 q 428 728 460 779 q 309 597 397 677 l 237 533 l 476 533 l 476 397 l 37 397 l 37 511 l 189 659 q 277 759 258 728 q 297 818 297 789 q 239 875 297 875 q 115 815 182 875 l 32 918 q 260 1006 132 1006 z "},"³":{"ha":526,"x_min":40,"x_max":471,"o":"m 256 1004 q 397 961 342 1004 q 452 847 452 917 q 336 713 452 751 l 336 704 q 435 653 400 690 q 471 562 471 616 q 410 432 471 478 q 225 386 349 386 q 40 433 128 386 l 40 562 q 224 501 140 501 q 321 574 321 501 q 291 627 321 609 q 208 646 262 646 l 132 646 l 132 754 l 195 754 q 279 772 252 754 q 306 828 306 789 q 288 871 306 855 q 239 888 271 888 q 179 876 207 888 q 110 835 151 863 l 41 930 q 256 1004 139 1004 z "},"´":{"ha":843,"x_min":225,"x_max":616,"o":"m 616 1064 l 616 1050 q 497 946 582 1015 q 363 842 412 877 l 225 842 l 225 860 q 385 1064 339 992 l 616 1064 z "},"¶":{"ha":909,"x_min":77,"x_max":791,"o":"m 791 -176 l 682 -176 l 682 920 l 570 920 l 570 -176 l 460 -176 l 460 379 q 361 367 418 367 q 146 451 215 367 q 77 709 77 535 q 151 969 77 884 q 382 1055 225 1055 l 791 1055 l 791 -176 z "},"·":{"ha":396,"x_min":79,"x_max":317,"o":"m 79 491 q 79 519 79 491 q 110 576 79 547 q 198 606 140 606 q 286 576 255 606 q 317 491 317 546 q 285 405 317 435 q 198 375 254 375 q 111 405 142 375 q 79 491 79 435 z "},"¸":{"ha":285,"x_min":-25,"x_max":283,"o":"m 283 -170 q 233 -295 283 -256 q 74 -334 182 -334 q -25 -319 20 -334 l -25 -205 q 72 -220 32 -220 q 121 -178 121 -220 q 8 -104 121 -121 l 61 0 l 192 0 l 174 -41 q 254 -92 224 -58 q 283 -170 283 -127 z "},"¹":{"ha":526,"x_min":62,"x_max":396,"o":"m 396 397 l 235 397 l 235 700 l 237 776 l 240 840 q 189 787 222 816 l 136 746 l 62 832 l 267 991 l 396 991 l 396 397 z "},"»":{"ha":854,"x_min":56,"x_max":799,"o":"m 456 389 l 456 371 l 204 63 l 56 144 l 244 380 l 56 616 l 204 697 l 456 389 m 799 389 l 799 371 l 547 63 l 399 144 l 587 380 l 399 616 l 547 697 l 799 389 z "},"¼":{"ha":1223,"x_min":31,"x_max":1141,"o":"m 365 397 l 203 397 l 203 700 l 205 776 l 209 840 q 158 787 191 816 l 105 746 l 31 832 l 235 991 l 365 991 l 365 397 m 379 0 l 217 0 l 767 991 l 929 991 l 379 0 m 1056 217 l 1141 217 l 1141 103 l 1056 103 l 1056 0 l 895 0 l 895 103 l 635 103 l 635 208 l 896 599 l 1056 599 l 1056 217 m 895 217 l 895 328 q 899 453 895 387 q 874 399 892 435 q 846 347 857 363 l 760 217 l 895 217 z "},"½":{"ha":1223,"x_min":31,"x_max":1164,"o":"m 365 397 l 203 397 l 203 700 l 205 776 l 209 840 q 158 787 191 816 l 105 746 l 31 832 l 235 991 l 365 991 l 365 397 m 379 0 l 217 0 l 767 991 l 929 991 l 379 0 m 947 609 q 1094 564 1040 609 q 1147 439 1147 519 q 1116 332 1147 382 q 996 201 1084 281 l 925 136 l 1164 136 l 1164 0 l 725 0 l 725 115 l 877 263 q 965 361 945 330 q 985 422 985 392 q 927 478 985 478 q 803 418 869 478 l 720 522 q 947 609 819 609 z "},"¾":{"ha":1223,"x_min":61,"x_max":1161,"o":"m 277 1004 q 418 961 363 1004 q 473 847 473 917 q 357 713 473 751 l 357 704 q 456 653 421 690 q 492 562 492 616 q 431 432 492 478 q 246 386 370 386 q 61 433 149 386 l 61 562 q 245 501 161 501 q 342 574 342 501 q 312 627 342 609 q 229 646 283 646 l 153 646 l 153 754 l 216 754 q 300 772 273 754 q 327 828 327 789 q 309 871 327 855 q 260 888 292 888 q 200 876 228 888 q 131 835 172 863 l 62 930 q 277 1004 160 1004 m 427 0 l 265 0 l 815 991 l 977 991 l 427 0 m 1076 217 l 1161 217 l 1161 103 l 1076 103 l 1076 0 l 915 0 l 915 103 l 655 103 l 655 208 l 916 599 l 1076 599 l 1076 217 m 915 217 l 915 328 q 919 453 915 387 q 895 399 912 435 q 867 347 878 363 l 781 217 l 915 217 z "},"¿":{"ha":662,"x_min":41,"x_max":666,"o":"m 268 643 q 268 670 268 643 q 299 728 268 698 q 387 758 331 758 q 474 728 443 758 q 505 642 505 699 q 475 557 505 586 q 387 528 444 528 q 299 557 330 528 q 268 643 268 587 m 484 411 l 484 361 q 453 246 484 294 q 349 145 423 197 q 256 62 275 93 q 237 -7 237 35 q 268 -74 237 -50 q 357 -98 298 -98 q 597 -31 442 -98 l 666 -180 q 516 -241 601 -218 q 361 -265 431 -265 q 126 -200 211 -265 q 41 -20 41 -134 q 74 107 41 53 q 204 232 107 161 q 286 304 271 281 q 304 371 304 330 l 304 411 l 484 411 z "},"À":{"ha":958,"x_min":0,"x_max":958,"o":"m 229 1293 l 461 1293 q 621 1089 507 1221 l 621 1071 l 484 1071 q 355 1170 437 1103 q 229 1279 273 1237 l 229 1293 m 958 0 l 732 0 l 660 236 l 298 236 l 227 0 l 0 0 l 350 996 l 607 996 l 958 0 m 351 412 l 610 412 q 499 769 513 722 q 479 842 485 817 q 351 412 457 755 z "},"Á":{"ha":958,"x_min":0,"x_max":958,"o":"m 758 1293 l 758 1279 q 639 1175 724 1244 q 505 1071 554 1106 l 367 1071 l 367 1089 q 526 1293 481 1221 l 758 1293 m 958 0 l 732 0 l 660 236 l 298 236 l 227 0 l 0 0 l 350 996 l 607 996 l 958 0 m 351 412 l 610 412 q 499 769 513 722 q 479 842 485 817 q 351 412 457 755 z "},"Â":{"ha":958,"x_min":0,"x_max":958,"o":"m 774 1071 l 636 1071 q 477 1190 530 1133 q 322 1071 423 1134 l 184 1071 l 184 1089 q 358 1293 312 1217 l 600 1293 q 672 1198 621 1259 q 774 1089 724 1137 l 774 1071 m 958 0 l 732 0 l 660 236 l 298 236 l 227 0 l 0 0 l 350 996 l 607 996 l 958 0 m 351 412 l 610 412 q 499 769 513 722 q 479 842 485 817 q 351 412 457 755 z "},"Ã":{"ha":958,"x_min":0,"x_max":958,"o":"m 576 1071 q 506 1089 545 1071 q 451 1116 493 1095 q 393 1139 410 1137 q 368 1142 376 1142 q 327 1123 346 1142 q 300 1069 308 1105 l 199 1069 q 255 1223 206 1168 q 383 1279 304 1279 q 491 1244 420 1279 q 526 1226 515 1232 q 588 1208 563 1208 q 633 1227 614 1208 q 660 1280 652 1246 l 761 1280 q 704 1126 753 1182 q 576 1071 655 1071 m 958 0 l 732 0 l 660 236 l 298 236 l 227 0 l 0 0 l 350 996 l 607 996 l 958 0 m 351 412 l 610 412 q 499 769 513 722 q 479 842 485 817 q 351 412 457 755 z "},"Ä":{"ha":958,"x_min":0,"x_max":958,"o":"m 273 1250 q 285 1262 273 1250 q 342 1274 298 1274 q 412 1249 386 1274 q 437 1182 437 1223 q 412 1117 437 1141 q 342 1092 386 1092 q 273 1116 298 1092 q 248 1182 248 1139 q 273 1250 248 1225 m 521 1182 q 521 1205 521 1182 q 547 1251 521 1227 q 617 1274 574 1274 q 687 1249 661 1274 q 713 1183 713 1225 q 686 1116 713 1141 q 617 1092 660 1092 q 547 1115 574 1092 q 521 1182 521 1137 m 958 0 l 732 0 l 660 236 l 298 236 l 227 0 l 0 0 l 350 996 l 607 996 l 958 0 m 351 412 l 610 412 q 499 769 513 722 q 479 842 485 817 q 351 412 457 755 z "},"Å":{"ha":958,"x_min":0,"x_max":958,"o":"m 310 1061 q 356 1178 310 1135 q 477 1222 401 1222 q 602 1177 553 1222 q 650 1063 650 1133 q 618 963 650 1004 l 958 0 l 732 0 l 660 236 l 298 236 l 227 0 l 0 0 l 338 964 q 310 1061 310 1004 m 525 1109 q 516 1118 525 1109 q 478 1126 507 1126 q 431 1109 449 1126 q 413 1061 413 1091 q 430 1013 413 1030 q 477 996 446 996 q 525 1014 507 996 q 543 1061 543 1031 q 525 1109 543 1091 m 351 412 l 610 412 q 499 769 513 722 q 479 842 485 817 q 351 412 457 755 z "},"Æ":{"ha":1322,"x_min":0,"x_max":1240,"o":"m 1240 819 l 859 819 l 859 602 l 1215 602 l 1215 429 l 859 429 l 859 174 l 1240 174 l 1240 0 l 648 0 l 648 236 l 315 236 l 214 0 l 0 0 l 444 991 l 1240 991 l 1240 819 m 648 412 l 648 812 l 562 812 l 392 412 l 648 412 z "},"Ç":{"ha":885,"x_min":81,"x_max":836,"o":"m 546 831 q 362 742 428 831 q 297 493 297 652 q 546 161 297 161 q 799 214 650 161 l 799 37 q 553 -13 690 -9 l 541 -41 q 621 -92 591 -58 q 650 -170 650 -127 q 600 -295 650 -256 q 441 -334 549 -334 q 342 -319 388 -334 l 342 -205 q 439 -220 399 -220 q 488 -178 488 -220 q 375 -104 488 -121 l 425 -5 q 169 152 257 24 q 81 494 81 279 q 137 766 81 649 q 298 944 193 882 q 548 1006 404 1006 q 836 936 692 1006 l 768 765 q 546 831 631 831 z "},"È":{"ha":778,"x_min":125,"x_max":696,"o":"m 176 1293 l 408 1293 q 567 1089 453 1221 l 567 1071 l 430 1071 q 301 1170 383 1103 q 176 1279 219 1237 l 176 1293 m 696 819 l 335 819 l 335 602 l 671 602 l 671 429 l 335 429 l 335 174 l 696 174 l 696 0 l 125 0 l 125 991 l 696 991 l 696 819 z "},"É":{"ha":778,"x_min":125,"x_max":696,"o":"m 679 1293 l 679 1279 q 559 1175 644 1244 q 425 1071 475 1106 l 288 1071 l 288 1089 q 447 1293 401 1221 l 679 1293 m 696 819 l 335 819 l 335 602 l 671 602 l 671 429 l 335 429 l 335 174 l 696 174 l 696 0 l 125 0 l 125 991 l 696 991 l 696 819 z "},"Ê":{"ha":778,"x_min":119,"x_max":708,"o":"m 708 1071 l 570 1071 q 412 1190 465 1133 q 256 1071 357 1134 l 119 1071 l 119 1089 q 292 1293 247 1217 l 534 1293 q 607 1198 555 1259 q 708 1089 659 1137 l 708 1071 m 696 819 l 335 819 l 335 602 l 671 602 l 671 429 l 335 429 l 335 174 l 696 174 l 696 0 l 125 0 l 125 991 l 696 991 l 696 819 z "},"Ë":{"ha":778,"x_min":125,"x_max":696,"o":"m 210 1250 q 222 1262 210 1250 q 279 1274 235 1274 q 349 1249 323 1274 q 374 1182 374 1223 q 349 1117 374 1141 q 279 1092 323 1092 q 210 1116 235 1092 q 184 1182 184 1139 q 210 1250 184 1225 m 458 1182 q 458 1205 458 1182 q 484 1251 458 1227 q 554 1274 511 1274 q 624 1249 597 1274 q 650 1183 650 1225 q 623 1116 650 1141 q 554 1092 597 1092 q 484 1115 511 1092 q 458 1182 458 1137 m 696 819 l 335 819 l 335 602 l 671 602 l 671 429 l 335 429 l 335 174 l 696 174 l 696 0 l 125 0 l 125 991 l 696 991 l 696 819 z "},"Ì":{"ha":460,"x_min":-39,"x_max":352,"o":"m -39 1293 l 193 1293 q 352 1089 238 1221 l 352 1071 l 215 1071 q 86 1170 168 1103 q -39 1279 4 1237 l -39 1293 m 335 0 l 125 0 l 125 991 l 335 991 l 335 0 z "},"Í":{"ha":460,"x_min":113,"x_max":505,"o":"m 505 1293 l 505 1279 q 385 1175 470 1244 q 251 1071 300 1106 l 113 1071 l 113 1089 q 273 1293 227 1221 l 505 1293 m 335 0 l 125 0 l 125 991 l 335 991 l 335 0 z "},"Î":{"ha":460,"x_min":-65,"x_max":524,"o":"m 524 1071 l 387 1071 q 228 1190 281 1133 q 73 1071 174 1134 l -65 1071 l -65 1089 q 109 1293 63 1217 l 351 1293 q 423 1198 371 1259 q 524 1089 475 1137 l 524 1071 m 335 0 l 125 0 l 125 991 l 335 991 l 335 0 z "},"Ï":{"ha":460,"x_min":-2,"x_max":463,"o":"m 23 1250 q 36 1262 23 1250 q 92 1274 48 1274 q 162 1249 136 1274 q 188 1182 188 1223 q 162 1117 188 1141 q 93 1092 136 1092 q 23 1116 49 1092 q -2 1182 -2 1139 q 23 1250 -2 1225 m 271 1182 q 271 1205 271 1182 q 298 1251 271 1227 q 368 1274 324 1274 q 437 1249 411 1274 q 463 1183 463 1225 q 437 1116 463 1141 q 367 1092 410 1092 q 298 1115 324 1092 q 271 1182 271 1137 m 335 0 l 125 0 l 125 991 l 335 991 l 335 0 z "},"Ð":{"ha":1028,"x_min":32,"x_max":947,"o":"m 125 991 l 436 991 q 813 863 678 991 q 947 505 947 735 q 808 130 947 260 q 406 0 669 0 l 125 0 l 125 404 l 32 404 l 32 576 l 125 576 l 125 991 m 335 819 l 335 576 l 496 576 l 496 404 l 335 404 l 335 174 l 424 174 q 729 500 729 174 q 446 819 729 819 l 335 819 z "},"Ñ":{"ha":1129,"x_min":125,"x_max":1004,"o":"m 661 1071 q 590 1089 629 1071 q 536 1116 578 1095 q 477 1139 494 1137 q 453 1142 460 1142 q 412 1123 431 1142 q 385 1069 393 1105 l 283 1069 q 340 1223 291 1168 q 468 1279 389 1279 q 576 1244 505 1279 q 612 1226 600 1232 q 673 1208 648 1208 q 718 1227 699 1208 q 745 1280 736 1246 l 846 1280 q 789 1126 838 1182 q 661 1071 740 1071 m 1004 0 l 737 0 l 306 750 l 300 750 q 313 467 313 557 l 313 0 l 125 0 l 125 991 l 390 991 l 821 249 l 825 249 q 815 522 815 442 l 815 991 l 1004 991 l 1004 0 z "},"Ò":{"ha":1105,"x_min":81,"x_max":1025,"o":"m 304 1293 l 536 1293 q 696 1089 582 1221 l 696 1071 l 559 1071 q 430 1170 512 1103 q 304 1279 348 1237 l 304 1293 m 81 498 q 81 622 81 498 q 203 876 81 745 q 553 1007 325 1007 q 903 876 782 1007 q 1025 497 1025 744 q 903 119 1025 251 q 553 -14 781 -14 q 203 119 325 -14 q 81 498 81 251 m 554 832 q 365 748 429 832 q 301 497 301 663 q 553 163 301 163 q 804 497 804 163 q 554 832 804 832 z "},"Ó":{"ha":1105,"x_min":81,"x_max":1025,"o":"m 838 1293 l 838 1279 q 718 1175 803 1244 q 584 1071 633 1106 l 446 1071 l 446 1089 q 606 1293 560 1221 l 838 1293 m 81 498 q 81 622 81 498 q 203 876 81 745 q 553 1007 325 1007 q 903 876 782 1007 q 1025 497 1025 744 q 903 119 1025 251 q 553 -14 781 -14 q 203 119 325 -14 q 81 498 81 251 m 554 832 q 365 748 429 832 q 301 497 301 663 q 553 163 301 163 q 804 497 804 163 q 554 832 804 832 z "},"Ô":{"ha":1105,"x_min":81,"x_max":1025,"o":"m 848 1071 l 710 1071 q 551 1190 604 1133 q 396 1071 497 1134 l 258 1071 l 258 1089 q 432 1293 387 1217 l 674 1293 q 746 1198 694 1259 q 848 1089 798 1137 l 848 1071 m 81 498 q 81 622 81 498 q 203 876 81 745 q 553 1007 325 1007 q 903 876 782 1007 q 1025 497 1025 744 q 903 119 1025 251 q 553 -14 781 -14 q 203 119 325 -14 q 81 498 81 251 m 554 832 q 365 748 429 832 q 301 497 301 663 q 553 163 301 163 q 804 497 804 163 q 554 832 804 832 z "},"Õ":{"ha":1105,"x_min":81,"x_max":1025,"o":"m 650 1071 q 579 1089 618 1071 q 525 1116 567 1095 q 467 1139 484 1137 q 442 1142 450 1142 q 401 1123 420 1142 q 374 1069 382 1105 l 273 1069 q 329 1223 280 1168 q 457 1279 378 1279 q 565 1244 494 1279 q 601 1226 589 1232 q 662 1208 637 1208 q 707 1227 688 1208 q 734 1280 726 1246 l 835 1280 q 778 1126 827 1182 q 650 1071 729 1071 m 81 498 q 81 622 81 498 q 203 876 81 745 q 553 1007 325 1007 q 903 876 782 1007 q 1025 497 1025 744 q 903 119 1025 251 q 553 -14 781 -14 q 203 119 325 -14 q 81 498 81 251 m 554 832 q 365 748 429 832 q 301 497 301 663 q 553 163 301 163 q 804 497 804 163 q 554 832 804 832 z "},"Ö":{"ha":1105,"x_min":81,"x_max":1025,"o":"m 347 1250 q 359 1262 347 1250 q 416 1274 372 1274 q 486 1249 460 1274 q 511 1182 511 1223 q 486 1117 511 1141 q 416 1092 460 1092 q 347 1116 372 1092 q 321 1182 321 1139 q 347 1250 321 1225 m 595 1182 q 595 1205 595 1182 q 621 1251 595 1227 q 691 1274 648 1274 q 761 1249 734 1274 q 787 1183 787 1225 q 760 1116 787 1141 q 691 1092 734 1092 q 621 1115 648 1092 q 595 1182 595 1137 m 81 498 q 81 622 81 498 q 203 876 81 745 q 553 1007 325 1007 q 903 876 782 1007 q 1025 497 1025 744 q 903 119 1025 251 q 553 -14 781 -14 q 203 119 325 -14 q 81 498 81 251 m 554 832 q 365 748 429 832 q 301 497 301 663 q 553 163 301 163 q 804 497 804 163 q 554 832 804 832 z "},"×":{"ha":793,"x_min":87,"x_max":705,"o":"m 705 697 l 498 490 l 703 285 l 602 182 l 395 386 l 191 183 l 89 286 l 290 490 l 87 694 l 191 799 l 395 596 l 602 799 l 705 697 z "},"Ø":{"ha":1105,"x_min":81,"x_max":1025,"o":"m 893 885 q 1025 502 1025 753 q 903 119 1025 251 q 553 -14 781 -14 q 325 31 420 -14 l 264 -61 l 154 12 l 215 104 q 81 498 81 235 q 203 876 81 745 q 554 1007 325 1007 q 787 960 690 1007 l 844 1044 l 953 974 l 893 885 m 554 832 q 365 748 429 832 q 301 497 301 663 q 339 289 301 368 l 682 802 q 554 832 625 832 m 553 163 q 804 497 804 163 q 770 699 804 619 l 431 189 q 553 163 483 163 z "},"Ù":{"ha":1050,"x_min":118,"x_max":932,"o":"m 254 1293 l 486 1293 q 646 1089 532 1221 l 646 1071 l 509 1071 q 380 1170 462 1103 q 254 1279 298 1237 l 254 1293 m 932 991 l 932 350 q 883 157 932 240 q 740 31 833 75 q 521 -14 647 -14 q 224 84 330 -14 q 118 353 118 182 l 118 991 l 328 991 l 328 385 q 374 216 328 269 q 525 163 421 163 q 676 216 629 163 q 722 386 722 270 l 722 991 l 932 991 z "},"Ú":{"ha":1050,"x_min":118,"x_max":932,"o":"m 800 1293 l 800 1279 q 680 1175 765 1244 q 546 1071 595 1106 l 408 1071 l 408 1089 q 568 1293 522 1221 l 800 1293 m 932 991 l 932 350 q 883 157 932 240 q 740 31 833 75 q 521 -14 647 -14 q 224 84 330 -14 q 118 353 118 182 l 118 991 l 328 991 l 328 385 q 374 216 328 269 q 525 163 421 163 q 676 216 629 163 q 722 386 722 270 l 722 991 l 932 991 z "},"Û":{"ha":1050,"x_min":118,"x_max":932,"o":"m 820 1071 l 682 1071 q 524 1190 576 1133 q 368 1071 469 1134 l 231 1071 l 231 1089 q 404 1293 358 1217 l 646 1293 q 719 1198 667 1259 q 820 1089 770 1137 l 820 1071 m 932 991 l 932 350 q 883 157 932 240 q 740 31 833 75 q 521 -14 647 -14 q 224 84 330 -14 q 118 353 118 182 l 118 991 l 328 991 l 328 385 q 374 216 328 269 q 525 163 421 163 q 676 216 629 163 q 722 386 722 270 l 722 991 l 932 991 z "},"Ü":{"ha":1050,"x_min":118,"x_max":932,"o":"m 319 1250 q 331 1262 319 1250 q 388 1274 344 1274 q 458 1249 432 1274 q 484 1182 484 1223 q 458 1117 484 1141 q 388 1092 432 1092 q 319 1116 345 1092 q 294 1182 294 1139 q 319 1250 294 1225 m 567 1182 q 567 1205 567 1182 q 593 1251 567 1227 q 663 1274 620 1274 q 733 1249 707 1274 q 759 1183 759 1225 q 732 1116 759 1141 q 663 1092 706 1092 q 593 1115 620 1092 q 567 1182 567 1137 m 932 991 l 932 350 q 883 157 932 240 q 740 31 833 75 q 521 -14 647 -14 q 224 84 330 -14 q 118 353 118 182 l 118 991 l 328 991 l 328 385 q 374 216 328 269 q 525 163 421 163 q 676 216 629 163 q 722 386 722 270 l 722 991 l 932 991 z "},"Ý":{"ha":867,"x_min":0,"x_max":867,"o":"m 704 1293 l 704 1279 q 585 1175 669 1244 q 450 1071 500 1106 l 313 1071 l 313 1089 q 472 1293 427 1221 l 704 1293 m 538 0 l 329 0 l 329 379 l 0 991 l 228 991 l 433 583 l 640 991 l 867 991 l 538 386 l 538 0 z "},"Þ":{"ha":872,"x_min":125,"x_max":810,"o":"m 335 836 l 456 836 q 719 755 628 836 q 810 521 810 675 q 713 283 810 367 q 439 199 616 199 l 335 199 l 335 0 l 125 0 l 125 991 l 335 991 l 335 836 m 335 665 l 335 368 l 403 368 q 550 405 503 368 q 597 518 597 441 q 554 630 597 595 q 419 665 511 665 l 335 665 z "},"ß":{"ha":987,"x_min":109,"x_max":939,"o":"m 109 0 l 109 772 q 208 986 109 909 q 477 1063 307 1063 q 747 1003 648 1063 q 847 842 847 943 q 797 707 847 766 q 703 625 770 675 q 653 567 653 588 q 671 530 653 547 q 763 467 688 513 q 869 390 837 420 q 939 221 939 325 q 860 45 939 104 q 627 -14 781 -14 q 421 29 497 -14 l 421 193 q 513 152 457 169 q 612 135 569 135 q 726 218 726 135 q 716 263 726 246 q 679 300 705 281 q 599 350 652 319 q 480 439 513 399 q 447 534 447 479 q 542 683 447 616 q 615 747 594 720 q 636 806 636 774 q 593 874 636 846 q 476 901 549 901 q 359 866 403 901 q 315 765 315 830 l 315 0 l 109 0 z "},"à":{"ha":839,"x_min":58,"x_max":734,"o":"m 162 1064 l 394 1064 q 553 860 439 992 l 553 842 l 416 842 q 288 941 370 874 q 162 1050 205 1008 l 162 1064 m 129 705 q 417 774 260 774 q 654 707 574 774 q 734 505 734 640 l 734 0 l 590 0 l 550 103 l 545 103 q 437 12 492 37 q 293 -14 382 -14 q 120 49 182 -14 q 58 229 58 112 q 142 404 58 346 q 397 468 225 462 l 529 472 l 529 505 q 411 621 529 621 q 197 566 320 621 l 129 705 m 271 225 q 371 138 271 138 q 486 179 443 138 q 529 289 529 220 l 529 351 l 449 349 q 315 316 359 346 q 271 225 271 286 z "},"á":{"ha":839,"x_min":58,"x_max":734,"o":"m 690 1064 l 690 1050 q 571 946 656 1015 q 437 842 486 877 l 299 842 l 299 860 q 458 1064 413 992 l 690 1064 m 129 705 q 417 774 260 774 q 654 707 574 774 q 734 505 734 640 l 734 0 l 590 0 l 550 103 l 545 103 q 437 12 492 37 q 293 -14 382 -14 q 120 49 182 -14 q 58 229 58 112 q 142 404 58 346 q 397 468 225 462 l 529 472 l 529 505 q 411 621 529 621 q 197 566 320 621 l 129 705 m 271 225 q 371 138 271 138 q 486 179 443 138 q 529 289 529 220 l 529 351 l 449 349 q 315 316 359 346 q 271 225 271 286 z "},"â":{"ha":839,"x_min":58,"x_max":734,"o":"m 709 841 l 572 841 q 413 960 466 903 q 258 841 359 904 l 120 841 l 120 859 q 294 1063 248 987 l 536 1063 q 608 968 556 1029 q 709 859 660 907 l 709 841 m 129 705 q 417 774 260 774 q 654 707 574 774 q 734 505 734 640 l 734 0 l 590 0 l 550 103 l 545 103 q 437 12 492 37 q 293 -14 382 -14 q 120 49 182 -14 q 58 229 58 112 q 142 404 58 346 q 397 468 225 462 l 529 472 l 529 505 q 411 621 529 621 q 197 566 320 621 l 129 705 m 271 225 q 371 138 271 138 q 486 179 443 138 q 529 289 529 220 l 529 351 l 449 349 q 315 316 359 346 q 271 225 271 286 z "},"ã":{"ha":839,"x_min":58,"x_max":734,"o":"m 525 842 q 454 860 493 842 q 429 872 441 865 q 322 913 349 913 q 275 894 294 913 q 248 840 256 876 l 147 840 q 203 994 155 939 q 332 1050 252 1050 q 439 1015 369 1050 q 475 997 464 1002 q 537 979 511 979 q 581 998 562 979 q 608 1051 600 1017 l 709 1051 q 653 897 702 953 q 525 842 604 842 m 129 705 q 417 774 260 774 q 654 707 574 774 q 734 505 734 640 l 734 0 l 590 0 l 550 103 l 545 103 q 437 12 492 37 q 293 -14 382 -14 q 120 49 182 -14 q 58 229 58 112 q 142 404 58 346 q 397 468 225 462 l 529 472 l 529 505 q 411 621 529 621 q 197 566 320 621 l 129 705 m 271 225 q 371 138 271 138 q 486 179 443 138 q 529 289 529 220 l 529 351 l 449 349 q 315 316 359 346 q 271 225 271 286 z "},"ä":{"ha":839,"x_min":58,"x_max":734,"o":"m 218 1020 q 231 1032 218 1020 q 288 1044 243 1044 q 357 1019 332 1044 q 383 953 383 994 q 357 887 383 912 q 288 863 332 863 q 219 886 244 863 q 193 953 193 910 q 218 1020 193 996 m 467 953 q 467 976 467 953 q 493 1021 467 998 q 563 1044 519 1044 q 632 1020 606 1044 q 659 954 659 996 q 632 887 659 911 q 563 863 606 863 q 493 885 519 863 q 467 953 467 908 m 129 705 q 417 774 260 774 q 654 707 574 774 q 734 505 734 640 l 734 0 l 590 0 l 550 103 l 545 103 q 437 12 492 37 q 293 -14 382 -14 q 120 49 182 -14 q 58 229 58 112 q 142 404 58 346 q 397 468 225 462 l 529 472 l 529 505 q 411 621 529 621 q 197 566 320 621 l 129 705 m 271 225 q 371 138 271 138 q 486 179 443 138 q 529 289 529 220 l 529 351 l 449 349 q 315 316 359 346 q 271 225 271 286 z "},"å":{"ha":839,"x_min":58,"x_max":734,"o":"m 258 1001 q 258 1038 258 1001 q 304 1119 258 1075 q 426 1162 350 1162 q 550 1118 501 1162 q 599 1002 599 1073 q 551 885 599 930 q 426 840 503 840 q 304 884 350 840 q 258 1001 258 927 m 474 1049 q 465 1058 474 1049 q 427 1067 456 1067 q 379 1049 397 1067 q 361 1001 361 1031 q 378 953 361 970 q 425 936 395 936 q 474 954 456 936 q 492 1002 492 972 q 474 1049 492 1031 m 129 705 q 417 774 260 774 q 654 707 574 774 q 734 505 734 640 l 734 0 l 590 0 l 550 103 l 545 103 q 437 12 492 37 q 293 -14 382 -14 q 120 49 182 -14 q 58 229 58 112 q 142 404 58 346 q 397 468 225 462 l 529 472 l 529 505 q 411 621 529 621 q 197 566 320 621 l 129 705 m 271 225 q 371 138 271 138 q 486 179 443 138 q 529 289 529 220 l 529 351 l 449 349 q 315 316 359 346 q 271 225 271 286 z "},"æ":{"ha":1274,"x_min":58,"x_max":1214,"o":"m 129 705 q 413 774 258 774 q 647 685 568 774 q 889 772 738 772 q 1127 680 1040 772 q 1214 428 1214 587 l 1214 328 l 724 328 q 776 190 727 239 q 913 140 825 140 q 1171 200 1046 140 l 1171 40 q 901 -14 1062 -14 q 731 21 806 -14 q 607 126 655 56 q 474 17 541 47 q 298 -14 407 -14 q 124 51 190 -14 q 58 230 58 115 q 139 404 58 345 q 386 468 220 462 l 515 472 l 515 529 q 486 598 515 575 q 403 621 456 621 q 196 568 309 621 l 129 705 m 886 625 q 728 465 739 625 l 1019 465 q 982 583 1018 541 q 886 625 946 625 m 271 225 q 366 138 271 138 q 475 179 434 138 q 515 289 515 220 l 515 351 l 439 349 q 312 316 354 346 q 271 225 271 286 z "},"ç":{"ha":714,"x_min":62,"x_max":671,"o":"m 435 606 q 273 380 273 606 q 435 154 273 154 q 647 220 549 154 l 647 43 q 557 2 602 14 q 448 -13 512 -11 l 436 -41 q 516 -92 487 -58 q 546 -170 546 -127 q 495 -295 546 -256 q 336 -334 445 -334 q 237 -319 283 -334 l 237 -205 q 334 -220 294 -220 q 383 -178 383 -220 q 271 -104 383 -121 l 321 -5 q 62 375 62 43 q 159 670 62 568 q 435 772 255 772 q 671 721 567 772 l 610 561 q 435 606 500 606 z "},"è":{"ha":821,"x_min":62,"x_max":761,"o":"m 166 1064 l 398 1064 q 557 860 444 992 l 557 842 l 420 842 q 292 941 374 874 q 166 1050 210 1008 l 166 1064 m 452 -14 q 165 88 268 -14 q 62 376 62 189 q 157 668 62 564 q 417 772 252 772 q 671 681 581 772 q 761 428 761 589 l 761 328 l 272 328 q 325 190 275 239 q 461 140 374 140 q 718 200 590 140 l 718 40 q 600 -1 662 12 q 452 -14 538 -14 m 567 465 q 527 583 566 541 q 423 625 489 625 q 320 584 357 625 q 277 465 282 543 l 567 465 z "},"é":{"ha":821,"x_min":62,"x_max":761,"o":"m 694 1064 l 694 1050 q 575 946 660 1015 q 441 842 490 877 l 303 842 l 303 860 q 463 1064 417 992 l 694 1064 m 452 -14 q 165 88 268 -14 q 62 376 62 189 q 157 668 62 564 q 417 772 252 772 q 671 681 581 772 q 761 428 761 589 l 761 328 l 272 328 q 325 190 275 239 q 461 140 374 140 q 718 200 590 140 l 718 40 q 600 -1 662 12 q 452 -14 538 -14 m 567 465 q 527 583 566 541 q 423 625 489 625 q 320 584 357 625 q 277 465 282 543 l 567 465 z "},"ê":{"ha":821,"x_min":62,"x_max":761,"o":"m 721 842 l 583 842 q 425 961 477 904 q 269 842 370 905 l 132 842 l 132 860 q 305 1064 259 987 l 547 1064 q 620 968 568 1029 q 721 860 671 907 l 721 842 m 452 -14 q 165 88 268 -14 q 62 376 62 189 q 157 668 62 564 q 417 772 252 772 q 671 681 581 772 q 761 428 761 589 l 761 328 l 272 328 q 325 190 275 239 q 461 140 374 140 q 718 200 590 140 l 718 40 q 600 -1 662 12 q 452 -14 538 -14 m 567 465 q 527 583 566 541 q 423 625 489 625 q 320 584 357 625 q 277 465 282 543 l 567 465 z "},"ë":{"ha":821,"x_min":62,"x_max":761,"o":"m 227 1020 q 239 1032 227 1020 q 296 1044 252 1044 q 366 1019 340 1044 q 391 953 391 994 q 366 887 391 912 q 296 863 340 863 q 227 886 252 863 q 201 953 201 910 q 227 1020 201 996 m 475 953 q 475 976 475 953 q 501 1021 475 998 q 571 1044 528 1044 q 641 1020 614 1044 q 667 954 667 996 q 640 887 667 911 q 571 863 614 863 q 501 885 528 863 q 475 953 475 908 m 452 -14 q 165 88 268 -14 q 62 376 62 189 q 157 668 62 564 q 417 772 252 772 q 671 681 581 772 q 761 428 761 589 l 761 328 l 272 328 q 325 190 275 239 q 461 140 374 140 q 718 200 590 140 l 718 40 q 600 -1 662 12 q 452 -14 538 -14 m 567 465 q 527 583 566 541 q 423 625 489 625 q 320 584 357 625 q 277 465 282 543 l 567 465 z "},"ì":{"ha":424,"x_min":-68,"x_max":323,"o":"m -68 1064 l 163 1064 q 323 860 209 992 l 323 842 l 186 842 q 57 941 139 874 q -68 1050 -25 1008 l -68 1064 m 315 0 l 109 0 l 109 758 l 315 758 l 315 0 z "},"í":{"ha":424,"x_min":98,"x_max":490,"o":"m 490 1064 l 490 1050 q 370 946 455 1015 q 236 842 286 877 l 98 842 l 98 860 q 258 1064 212 992 l 490 1064 m 315 0 l 109 0 l 109 758 l 315 758 l 315 0 z "},"î":{"ha":424,"x_min":-83,"x_max":507,"o":"m 507 842 l 369 842 q 210 961 263 904 q 55 842 156 905 l -83 842 l -83 860 q 91 1064 45 987 l 333 1064 q 405 968 353 1029 q 507 860 457 907 l 507 842 m 315 0 l 109 0 l 109 758 l 315 758 l 315 0 z "},"ï":{"ha":424,"x_min":-20,"x_max":446,"o":"m 5 1020 q 18 1032 5 1020 q 75 1044 31 1044 q 144 1019 119 1044 q 170 953 170 994 q 144 887 170 912 q 75 863 119 863 q 6 886 31 863 q -20 953 -20 910 q 5 1020 -20 996 m 254 953 q 254 976 254 953 q 280 1021 254 998 q 350 1044 307 1044 q 419 1020 393 1044 q 446 954 446 996 q 419 887 446 911 q 350 863 393 863 q 280 885 307 863 q 254 953 254 908 m 315 0 l 109 0 l 109 758 l 315 758 l 315 0 z "},"ð":{"ha":860,"x_min":62,"x_max":798,"o":"m 798 389 q 700 93 798 199 q 431 -14 602 -14 q 162 80 261 -14 q 62 331 62 173 q 151 582 62 490 q 383 675 239 675 q 575 608 527 675 l 581 611 q 450 802 534 722 l 294 705 l 227 811 l 346 884 q 243 946 291 920 l 311 1065 q 486 970 409 1021 l 639 1064 l 707 960 l 591 889 q 747 669 696 792 q 798 389 798 547 m 586 361 q 544 478 586 435 q 426 522 503 522 q 311 476 349 522 q 273 333 273 430 q 314 188 273 236 q 433 139 354 139 q 549 194 513 139 q 586 361 586 248 z "},"ñ":{"ha":913,"x_min":109,"x_max":808,"o":"m 553 842 q 481 860 521 842 q 428 886 469 865 q 369 910 386 907 q 345 913 352 913 q 303 894 322 913 q 276 840 284 876 l 175 840 q 231 994 182 939 q 359 1050 280 1050 q 467 1015 397 1050 q 503 997 492 1002 q 565 979 539 979 q 609 998 590 979 q 636 1051 628 1017 l 737 1051 q 681 897 730 953 q 553 842 631 842 m 539 772 q 740 701 671 772 q 808 494 808 629 l 808 0 l 602 0 l 602 443 q 572 566 602 526 q 479 607 543 607 q 354 549 392 607 q 315 357 315 490 l 315 0 l 109 0 l 109 758 l 267 758 l 294 661 l 306 661 q 400 744 340 715 q 539 772 461 772 z "},"ò":{"ha":860,"x_min":62,"x_max":798,"o":"m 161 1064 l 393 1064 q 552 860 438 992 l 552 842 l 415 842 q 286 941 368 874 q 161 1050 204 1008 l 161 1064 m 432 772 q 625 725 542 772 q 753 589 708 677 q 798 380 798 500 q 700 91 798 195 q 428 -14 602 -14 q 235 34 318 -14 q 107 172 152 82 q 62 380 62 261 q 159 669 62 566 q 432 772 256 772 m 549 550 q 530 578 549 550 q 429 606 511 606 q 310 551 347 606 q 273 381 273 496 q 311 209 273 266 q 430 153 349 153 q 549 209 512 153 q 586 380 586 265 q 549 550 586 495 z "},"ó":{"ha":860,"x_min":62,"x_max":798,"o":"m 708 1064 l 708 1050 q 589 946 673 1015 q 454 842 504 877 l 317 842 l 317 860 q 476 1064 431 992 l 708 1064 m 432 772 q 625 725 542 772 q 753 589 708 677 q 798 380 798 500 q 700 91 798 195 q 428 -14 602 -14 q 235 34 318 -14 q 107 172 152 82 q 62 380 62 261 q 159 669 62 566 q 432 772 256 772 m 549 550 q 530 578 549 550 q 429 606 511 606 q 310 551 347 606 q 273 381 273 496 q 311 209 273 266 q 430 153 349 153 q 549 209 512 153 q 586 380 586 265 q 549 550 586 495 z "},"ô":{"ha":860,"x_min":62,"x_max":798,"o":"m 724 842 l 586 842 q 427 961 480 904 q 272 842 373 905 l 134 842 l 134 860 q 308 1064 262 987 l 550 1064 q 622 968 570 1029 q 724 860 674 907 l 724 842 m 432 772 q 625 725 542 772 q 753 589 708 677 q 798 380 798 500 q 700 91 798 195 q 428 -14 602 -14 q 235 34 318 -14 q 107 172 152 82 q 62 380 62 261 q 159 669 62 566 q 432 772 256 772 m 549 550 q 530 578 549 550 q 429 606 511 606 q 310 551 347 606 q 273 381 273 496 q 311 209 273 266 q 430 153 349 153 q 549 209 512 153 q 586 380 586 265 q 549 550 586 495 z "},"õ":{"ha":860,"x_min":62,"x_max":798,"o":"m 526 842 q 456 860 494 842 q 430 872 443 865 q 323 913 351 913 q 277 894 296 913 q 250 840 258 876 l 149 840 q 205 994 156 939 q 333 1050 254 1050 q 441 1015 370 1050 q 476 997 465 1002 q 538 979 513 979 q 583 998 564 979 q 610 1051 602 1017 l 711 1051 q 654 897 703 953 q 526 842 605 842 m 432 772 q 625 725 542 772 q 753 589 708 677 q 798 380 798 500 q 700 91 798 195 q 428 -14 602 -14 q 235 34 318 -14 q 107 172 152 82 q 62 380 62 261 q 159 669 62 566 q 432 772 256 772 m 549 550 q 530 578 549 550 q 429 606 511 606 q 310 551 347 606 q 273 381 273 496 q 311 209 273 266 q 430 153 349 153 q 549 209 512 153 q 586 380 586 265 q 549 550 586 495 z "},"ö":{"ha":860,"x_min":62,"x_max":798,"o":"m 222 1020 q 235 1032 222 1020 q 292 1044 248 1044 q 361 1019 336 1044 q 387 953 387 994 q 361 887 387 912 q 292 863 336 863 q 223 886 248 863 q 197 953 197 910 q 222 1020 197 996 m 471 953 q 471 976 471 953 q 497 1021 471 998 q 567 1044 524 1044 q 636 1020 610 1044 q 663 954 663 996 q 636 887 663 911 q 567 863 610 863 q 497 885 524 863 q 471 953 471 908 m 432 772 q 625 725 542 772 q 753 589 708 677 q 798 380 798 500 q 700 91 798 195 q 428 -14 602 -14 q 235 34 318 -14 q 107 172 152 82 q 62 380 62 261 q 159 669 62 566 q 432 772 256 772 m 549 550 q 530 578 549 550 q 429 606 511 606 q 310 551 347 606 q 273 381 273 496 q 311 209 273 266 q 430 153 349 153 q 549 209 512 153 q 586 380 586 265 q 549 550 586 495 z "},"÷":{"ha":793,"x_min":60,"x_max":733,"o":"m 301 727 q 301 752 301 727 q 326 803 301 777 q 396 829 351 829 q 466 802 441 829 q 490 727 490 775 q 465 651 490 678 q 396 624 440 624 q 326 650 351 624 q 301 727 301 677 m 733 415 l 60 415 l 60 564 l 733 564 l 733 415 m 301 254 q 301 279 301 254 q 326 330 301 304 q 396 355 351 355 q 466 329 441 355 q 490 254 490 302 q 465 178 490 205 q 396 150 440 150 q 326 177 351 150 q 301 254 301 203 z "},"ø":{"ha":860,"x_min":62,"x_max":798,"o":"m 701 663 q 798 377 798 558 q 700 91 798 195 q 428 -14 602 -14 q 269 17 342 -14 l 224 -52 l 119 20 l 165 87 q 62 380 62 194 q 159 669 62 566 q 432 772 256 772 q 600 737 523 772 l 637 793 l 741 720 l 701 663 m 429 606 q 310 551 347 606 q 273 380 273 496 q 286 268 273 315 l 501 590 q 429 606 471 606 m 431 153 q 549 209 512 153 q 586 380 586 265 q 578 476 586 435 l 368 163 q 431 153 394 153 z "},"ù":{"ha":913,"x_min":104,"x_max":804,"o":"m 166 1064 l 398 1064 q 557 860 444 992 l 557 842 l 420 842 q 292 941 374 874 q 166 1050 210 1008 l 166 1064 m 804 0 l 646 0 l 618 97 l 607 97 q 513 15 574 44 q 374 -14 452 -14 q 173 58 241 -14 q 104 264 104 129 l 104 758 l 311 758 l 311 315 q 341 192 311 233 q 433 151 370 151 q 559 210 521 151 q 597 401 597 268 l 597 758 l 804 758 l 804 0 z "},"ú":{"ha":913,"x_min":104,"x_max":804,"o":"m 729 1064 l 729 1050 q 610 946 694 1015 q 475 842 525 877 l 338 842 l 338 860 q 497 1064 452 992 l 729 1064 m 804 0 l 646 0 l 618 97 l 607 97 q 513 15 574 44 q 374 -14 452 -14 q 173 58 241 -14 q 104 264 104 129 l 104 758 l 311 758 l 311 315 q 341 192 311 233 q 433 151 370 151 q 559 210 521 151 q 597 401 597 268 l 597 758 l 804 758 l 804 0 z "},"û":{"ha":913,"x_min":104,"x_max":804,"o":"m 749 842 l 611 842 q 452 961 505 904 q 297 842 398 905 l 159 842 l 159 860 q 333 1064 288 987 l 575 1064 q 647 968 595 1029 q 749 860 699 907 l 749 842 m 804 0 l 646 0 l 618 97 l 607 97 q 513 15 574 44 q 374 -14 452 -14 q 173 58 241 -14 q 104 264 104 129 l 104 758 l 311 758 l 311 315 q 341 192 311 233 q 433 151 370 151 q 559 210 521 151 q 597 401 597 268 l 597 758 l 804 758 l 804 0 z "},"ü":{"ha":913,"x_min":104,"x_max":804,"o":"m 246 1020 q 259 1032 246 1020 q 315 1044 271 1044 q 385 1019 359 1044 q 411 953 411 994 q 385 887 411 912 q 316 863 359 863 q 247 886 272 863 q 221 953 221 910 q 246 1020 221 996 m 494 953 q 494 976 494 953 q 521 1021 494 998 q 591 1044 547 1044 q 660 1020 634 1044 q 686 954 686 996 q 660 887 686 911 q 590 863 633 863 q 521 885 547 863 q 494 953 494 908 m 804 0 l 646 0 l 618 97 l 607 97 q 513 15 574 44 q 374 -14 452 -14 q 173 58 241 -14 q 104 264 104 129 l 104 758 l 311 758 l 311 315 q 341 192 311 233 q 433 151 370 151 q 559 210 521 151 q 597 401 597 268 l 597 758 l 804 758 l 804 0 z "},"ý":{"ha":790,"x_min":0,"x_max":790,"o":"m 658 1064 l 658 1050 q 538 946 623 1015 q 404 842 454 877 l 267 842 l 267 860 q 426 1064 380 992 l 658 1064 m 153 -334 q 47 -322 101 -334 l 47 -158 q 129 -167 83 -167 q 289 -32 243 -167 l 301 5 l 0 758 l 227 758 l 370 332 q 395 200 387 277 l 399 200 q 428 332 406 267 l 568 758 l 790 758 l 469 -97 q 344 -274 425 -214 q 153 -334 263 -334 z "},"þ":{"ha":879,"x_min":109,"x_max":817,"o":"m 530 772 q 741 668 665 772 q 817 379 817 564 q 741 91 817 195 q 526 -14 665 -14 q 315 79 386 -14 l 306 79 l 311 37 l 315 -26 l 315 -334 l 109 -334 l 109 1055 l 315 1055 l 315 790 l 311 709 l 306 660 l 315 660 q 530 772 385 772 m 315 382 q 351 207 315 260 q 467 154 387 154 q 606 383 606 154 q 571 551 606 496 q 461 607 536 607 q 352 559 387 607 q 315 404 317 512 l 315 382 z "},"ÿ":{"ha":790,"x_min":0,"x_max":790,"o":"m 190 1020 q 202 1032 190 1020 q 259 1044 215 1044 q 329 1019 303 1044 q 355 953 355 994 q 329 887 355 912 q 259 863 303 863 q 190 886 216 863 q 165 953 165 910 q 190 1020 165 996 m 438 953 q 438 976 438 953 q 465 1021 438 998 q 534 1044 491 1044 q 604 1020 578 1044 q 630 954 630 996 q 604 887 630 911 q 534 863 577 863 q 465 885 491 863 q 438 953 438 908 m 153 -334 q 47 -322 101 -334 l 47 -158 q 129 -167 83 -167 q 289 -32 243 -167 l 301 5 l 0 758 l 227 758 l 370 332 q 395 200 387 277 l 399 200 q 428 332 406 267 l 568 758 l 790 758 l 469 -97 q 344 -274 425 -214 q 153 -334 263 -334 z "},"ı":{"ha":424,"x_min":109,"x_max":315,"o":"m 315 0 l 109 0 l 109 758 l 315 758 l 315 0 z "},"Œ":{"ha":1352,"x_min":81,"x_max":1270,"o":"m 1270 0 l 677 0 q 525 -14 620 -14 q 195 120 310 -14 q 81 499 81 253 q 196 876 81 745 q 526 1007 311 1007 q 681 991 620 1007 l 1270 991 l 1270 819 l 888 819 l 888 602 l 1244 602 l 1244 429 l 888 429 l 888 174 l 1270 174 l 1270 0 m 526 832 q 355 747 414 832 q 297 497 297 662 q 355 248 297 332 q 525 163 413 163 q 677 189 621 163 l 677 804 q 610 824 654 817 q 526 832 566 832 z "},"œ":{"ha":1358,"x_min":62,"x_max":1299,"o":"m 981 -14 q 696 92 797 -14 q 431 -14 600 -14 q 236 34 320 -14 q 108 171 153 82 q 62 380 62 260 q 158 670 62 568 q 429 772 254 772 q 574 745 506 772 q 689 667 642 718 q 950 772 787 772 q 1206 681 1114 772 q 1299 428 1299 589 l 1299 328 l 793 328 l 793 322 q 848 188 798 236 q 989 140 899 140 q 1255 200 1125 140 l 1255 40 q 981 -14 1144 -14 m 1104 465 q 1063 583 1103 541 q 955 625 1023 625 q 846 585 887 625 q 799 465 805 545 l 1104 465 m 549 550 q 530 578 549 550 q 429 606 511 606 q 310 551 347 606 q 273 381 273 496 q 311 209 273 266 q 430 153 349 153 q 549 209 512 153 q 586 380 586 265 q 549 550 586 495 z "},"Š":{"ha":765,"x_min":64,"x_max":710,"o":"m 701 1293 l 701 1275 q 596 1162 644 1219 q 527 1071 548 1105 l 285 1071 q 229 1146 266 1102 q 111 1275 192 1191 l 111 1293 l 249 1293 q 404 1174 347 1232 q 563 1293 462 1234 l 701 1293 m 361 160 q 467 186 431 160 q 504 266 504 213 q 440 361 504 319 q 316 426 410 381 q 176 509 222 470 q 75 725 75 594 q 164 930 75 855 q 411 1006 254 1006 q 705 936 543 1006 l 637 772 q 506 818 558 805 q 400 831 454 831 q 313 803 346 831 q 281 730 281 776 q 294 682 281 703 q 335 642 307 662 q 468 572 364 622 q 657 440 604 507 q 710 275 710 374 q 613 63 710 140 q 351 -14 516 -14 q 64 46 185 -14 l 64 241 q 361 160 246 160 z "},"š":{"ha":690,"x_min":62,"x_max":659,"o":"m 659 1064 l 659 1046 q 555 933 603 989 q 486 842 507 876 l 243 842 q 188 917 224 873 q 70 1046 151 962 l 70 1064 l 208 1064 q 363 945 305 1002 q 522 1064 420 1004 l 659 1064 m 321 138 q 433 203 433 138 q 419 242 433 227 q 288 314 393 271 q 141 389 183 358 q 81 462 100 420 q 62 561 62 500 q 141 717 62 662 q 360 772 219 772 q 629 713 501 772 l 567 564 q 454 605 501 591 q 359 619 407 619 q 268 570 268 619 q 298 521 268 542 q 421 463 329 500 q 555 395 513 426 q 637 221 637 334 q 556 47 637 108 q 320 -14 475 -14 q 64 31 166 -14 l 64 201 q 194 156 122 174 q 321 138 267 138 z "},"Ÿ":{"ha":867,"x_min":0,"x_max":867,"o":"m 227 1250 q 239 1262 227 1250 q 296 1274 252 1274 q 366 1249 340 1274 q 391 1182 391 1223 q 366 1117 391 1141 q 296 1092 340 1092 q 227 1116 252 1092 q 201 1182 201 1139 q 227 1250 201 1225 m 475 1182 q 475 1205 475 1182 q 501 1251 475 1227 q 571 1274 528 1274 q 641 1249 614 1274 q 667 1183 667 1225 q 640 1116 667 1141 q 571 1092 614 1092 q 501 1115 528 1092 q 475 1182 475 1137 m 538 0 l 329 0 l 329 379 l 0 991 l 228 991 l 433 583 l 640 991 l 867 991 l 538 386 l 538 0 z "},"Ž":{"ha":804,"x_min":33,"x_max":771,"o":"m 705 1293 l 705 1275 q 601 1162 649 1219 q 532 1071 553 1105 l 290 1071 q 234 1146 271 1102 q 116 1275 197 1191 l 116 1293 l 254 1293 q 409 1174 351 1232 q 568 1293 467 1234 l 705 1293 m 771 174 l 771 0 l 33 0 l 33 136 l 509 818 l 46 818 l 46 991 l 758 991 l 758 856 l 283 174 l 771 174 z "},"ž":{"ha":677,"x_min":37,"x_max":646,"o":"m 646 1064 l 646 1046 q 541 933 589 989 q 472 842 493 876 l 230 842 q 174 917 211 873 q 56 1046 137 962 l 56 1064 l 194 1064 q 349 945 292 1002 q 508 1064 407 1004 l 646 1064 m 636 158 l 636 0 l 37 0 l 37 122 l 389 600 l 58 600 l 58 758 l 624 758 l 624 624 l 282 158 l 636 158 z "},"ƒ":{"ha":793,"x_min":134,"x_max":726,"o":"m 298 757 q 358 946 298 886 q 549 1006 418 1006 q 726 974 648 1006 l 677 822 q 579 842 621 842 q 505 749 505 842 l 505 701 l 659 701 l 659 546 l 505 546 l 505 -82 q 441 -268 505 -203 q 258 -334 378 -334 q 134 -317 184 -334 l 134 -154 q 214 -167 172 -167 q 298 -52 298 -167 l 298 546 l 184 546 l 184 646 l 298 701 l 298 757 z "},"ˆ":{"ha":843,"x_min":126,"x_max":715,"o":"m 715 842 l 578 842 q 419 961 472 904 q 264 842 365 905 l 126 842 l 126 860 q 300 1064 254 987 l 542 1064 q 614 968 562 1029 q 715 860 666 907 l 715 842 z "},"ˇ":{"ha":843,"x_min":126,"x_max":715,"o":"m 715 1064 l 715 1046 q 611 933 659 989 q 542 842 563 876 l 300 842 q 244 917 281 873 q 126 1046 207 962 l 126 1064 l 264 1064 q 419 945 361 1002 q 578 1064 477 1004 l 715 1064 z "},"˘":{"ha":843,"x_min":154,"x_max":688,"o":"m 688 1071 q 605 904 680 967 q 416 842 531 842 q 230 903 300 842 q 154 1071 159 964 l 269 1071 q 333 994 274 1010 q 419 986 361 986 q 570 1071 558 986 l 688 1071 z "},"˙":{"ha":424,"x_min":100,"x_max":325,"o":"m 100 954 q 100 1005 100 954 q 212 1055 100 1055 q 325 954 325 1055 q 296 879 325 905 q 212 852 268 852 q 100 954 100 852 z "},"˚":{"ha":802,"x_min":231,"x_max":571,"o":"m 231 1001 q 231 1038 231 1001 q 276 1119 231 1075 q 398 1162 322 1162 q 522 1118 473 1162 q 571 1002 571 1073 q 523 885 571 930 q 398 840 475 840 q 276 884 322 840 q 231 1001 231 927 m 446 1049 q 437 1058 446 1049 q 399 1067 428 1067 q 352 1049 370 1067 q 334 1001 334 1031 q 350 953 334 970 q 397 936 367 936 q 446 954 428 936 q 464 1002 464 972 q 446 1049 464 1031 z "},"˛":{"ha":286,"x_min":7,"x_max":282,"o":"m 250 0 q 175 -84 199 -48 q 150 -151 150 -121 q 164 -196 150 -182 q 210 -210 179 -210 q 282 -197 241 -210 l 282 -318 q 176 -334 225 -334 q 53 -291 100 -334 q 7 -178 7 -248 q 34 -91 7 -131 q 129 0 60 -51 l 250 0 z "},"˜":{"ha":843,"x_min":140,"x_max":703,"o":"m 518 842 q 448 860 486 842 q 422 872 435 865 q 315 913 342 913 q 269 894 288 913 q 241 840 250 876 l 140 840 q 197 994 148 939 q 325 1050 245 1050 q 433 1015 362 1050 q 468 997 457 1002 q 530 979 505 979 q 574 998 555 979 q 602 1051 593 1017 l 703 1051 q 646 897 695 953 q 518 842 597 842 z "},"˝":{"ha":817,"x_min":106,"x_max":711,"o":"m 441 1064 l 441 1050 q 347 950 421 1017 q 215 842 273 884 l 106 842 l 106 860 q 184 974 146 914 q 237 1064 222 1034 l 441 1064 m 711 1064 l 711 1050 q 627 960 695 1021 q 485 842 559 898 l 375 842 l 375 860 q 507 1064 470 991 l 711 1064 z "},"̀":{"ha":0,"x_min":-680,"x_max":-288,"o":"m -680 1064 l -448 1064 q -288 860 -402 992 l -288 842 l -425 842 q -554 941 -472 874 q -680 1050 -636 1008 l -680 1064 z "},"́":{"ha":0,"x_min":-553,"x_max":-162,"o":"m -162 1064 l -162 1050 q -281 946 -197 1015 q -416 842 -366 877 l -553 842 l -553 860 q -394 1064 -439 992 l -162 1064 z "},"̃":{"ha":0,"x_min":-716,"x_max":-154,"o":"m -338 842 q -410 860 -370 842 q -464 886 -422 865 q -522 910 -505 907 q -547 913 -539 913 q -588 894 -569 913 q -615 840 -607 876 l -716 840 q -660 994 -709 939 q -532 1050 -611 1050 q -424 1015 -494 1050 q -388 997 -399 1002 q -327 979 -352 979 q -282 998 -301 979 q -255 1051 -263 1017 l -154 1051 q -211 897 -161 953 q -338 842 -260 842 z "},"μ":{"ha":917,"x_min":109,"x_max":808,"o":"m 808 0 l 652 0 l 623 102 l 612 102 q 542 15 583 43 q 443 -14 501 -14 q 309 47 353 -14 l 312 -10 l 315 -117 l 315 -334 l 109 -334 l 109 758 l 315 758 l 315 315 q 346 192 315 233 q 439 151 376 151 q 563 210 524 151 q 602 401 602 269 l 602 758 l 808 758 l 808 0 z "},"ְ":{"ha":0,"x_min":364,"x_max":491,"o":"m 364 -127 q 364 -114 364 -127 q 381 -84 364 -100 q 428 -68 398 -68 q 474 -84 457 -68 q 491 -127 491 -100 q 474 -170 491 -155 q 428 -186 457 -186 q 381 -170 398 -186 q 364 -127 364 -155 m 364 -291 q 364 -277 364 -291 q 381 -248 364 -264 q 428 -232 398 -232 q 474 -248 457 -232 q 491 -291 491 -264 q 474 -333 491 -317 q 428 -349 457 -349 q 381 -334 398 -349 q 364 -291 364 -318 z "},"ֱ":{"ha":0,"x_min":193,"x_max":701,"o":"m 210 -95 q 219 -87 210 -95 q 256 -79 227 -79 q 303 -95 286 -79 q 320 -138 320 -111 q 303 -180 320 -165 q 256 -196 286 -196 q 210 -180 227 -196 q 193 -138 193 -165 q 210 -95 193 -111 m 394 -138 q 394 -124 394 -138 q 411 -94 394 -110 q 457 -79 428 -79 q 505 -95 487 -79 q 522 -138 522 -111 q 505 -180 522 -165 q 457 -196 487 -196 q 411 -181 427 -196 q 394 -138 394 -165 m 574 -138 q 574 -124 574 -138 q 591 -95 574 -111 q 638 -79 608 -79 q 684 -95 667 -79 q 701 -138 701 -111 q 684 -180 701 -165 q 638 -196 667 -196 q 591 -180 608 -196 q 574 -138 574 -165 m 313 -258 q 322 -250 313 -258 q 359 -242 330 -242 q 406 -258 389 -242 q 422 -301 422 -274 q 406 -343 422 -328 q 359 -359 389 -359 q 313 -344 330 -359 q 296 -301 296 -328 q 313 -258 296 -273 m 574 -301 q 574 -288 574 -301 q 591 -258 574 -274 q 638 -242 608 -242 q 684 -258 667 -242 q 701 -301 701 -274 q 684 -343 701 -328 q 638 -359 667 -359 q 591 -344 608 -359 q 574 -301 574 -328 z "},"ֲ":{"ha":0,"x_min":238,"x_max":671,"o":"m 562 -94 q 570 -86 562 -94 q 608 -79 578 -79 q 654 -95 637 -79 q 671 -138 671 -111 q 654 -180 671 -165 q 607 -196 637 -196 q 561 -180 578 -196 q 545 -137 545 -165 q 562 -94 545 -110 m 487 -176 l 238 -176 l 238 -96 l 487 -96 l 487 -176 m 562 -258 q 570 -250 562 -258 q 608 -242 578 -242 q 654 -258 637 -242 q 671 -301 671 -274 q 654 -343 671 -328 q 607 -359 637 -359 q 561 -344 578 -359 q 545 -301 545 -328 q 562 -258 545 -273 z "},"ֳ":{"ha":0,"x_min":238,"x_max":673,"o":"m 547 -138 q 547 -124 547 -138 q 564 -95 547 -111 q 610 -79 581 -79 q 656 -95 640 -79 q 673 -138 673 -111 q 656 -180 673 -165 q 610 -196 640 -196 q 564 -180 581 -196 q 547 -138 547 -165 m 487 -176 l 400 -176 l 400 -313 l 325 -313 l 325 -176 l 238 -176 l 238 -96 l 487 -96 l 487 -176 m 547 -301 q 547 -288 547 -301 q 564 -258 547 -274 q 610 -242 581 -242 q 656 -258 640 -242 q 673 -301 673 -274 q 656 -343 673 -328 q 610 -359 640 -359 q 564 -344 581 -359 q 547 -301 547 -328 z "},"ִ":{"ha":0,"x_min":362,"x_max":490,"o":"m 362 -134 q 362 -120 362 -134 q 379 -91 362 -106 q 426 -75 396 -75 q 473 -92 455 -75 q 490 -134 490 -108 q 473 -177 490 -161 q 425 -193 455 -193 q 379 -177 395 -193 q 362 -134 362 -162 z "},"ֵ":{"ha":0,"x_min":262,"x_max":591,"o":"m 279 -78 q 288 -70 279 -78 q 326 -62 296 -62 q 372 -78 355 -62 q 389 -121 389 -94 q 372 -164 389 -148 q 325 -180 355 -180 q 279 -164 296 -180 q 262 -121 262 -149 q 279 -78 262 -94 m 463 -121 q 463 -107 463 -121 q 479 -78 463 -94 q 526 -62 496 -62 q 574 -79 556 -62 q 591 -121 591 -95 q 574 -164 591 -148 q 526 -180 556 -180 q 479 -164 496 -180 q 463 -121 463 -149 z "},"ֶ":{"ha":0,"x_min":262,"x_max":591,"o":"m 279 -94 q 288 -86 279 -94 q 326 -79 296 -79 q 372 -95 355 -79 q 389 -138 389 -111 q 372 -180 389 -165 q 325 -196 355 -196 q 279 -180 296 -196 q 262 -137 262 -165 q 279 -94 262 -110 m 463 -138 q 463 -124 463 -138 q 479 -94 463 -110 q 526 -79 496 -79 q 574 -95 556 -79 q 591 -138 591 -111 q 574 -180 591 -165 q 526 -196 556 -196 q 479 -181 496 -196 q 463 -138 463 -165 m 365 -301 q 365 -288 365 -301 q 382 -258 365 -274 q 428 -242 399 -242 q 475 -258 458 -242 q 492 -301 492 -274 q 475 -343 492 -328 q 428 -359 458 -359 q 382 -344 399 -359 q 365 -301 365 -328 z "},"ַ":{"ha":0,"x_min":293,"x_max":559,"o":"m 559 -159 l 293 -159 l 293 -80 l 559 -80 l 559 -159 z "},"ָ":{"ha":0,"x_min":297,"x_max":556,"o":"m 556 -173 l 464 -173 l 464 -310 l 389 -310 l 389 -173 l 297 -173 l 297 -94 l 556 -94 l 556 -173 z "},"ֹ":{"ha":0,"x_min":363,"x_max":491,"o":"m 363 1015 q 363 1028 363 1015 q 380 1058 363 1042 q 426 1074 397 1074 q 473 1057 456 1074 q 491 1015 491 1041 q 473 972 491 988 q 426 956 456 956 q 379 971 396 956 q 363 1015 363 987 z "},"ֺ":{"ha":0,"x_min":363,"x_max":491,"o":"m 363 1015 q 363 1028 363 1015 q 380 1058 363 1042 q 426 1074 397 1074 q 473 1057 456 1074 q 491 1015 491 1041 q 473 972 491 988 q 426 956 456 956 q 379 971 396 956 q 363 1015 363 987 z "},"ֻ":{"ha":0,"x_min":267,"x_max":644,"o":"m 284 -102 q 293 -94 284 -102 q 330 -86 301 -86 q 376 -102 359 -86 q 393 -145 393 -118 q 376 -188 393 -172 q 330 -203 359 -203 q 284 -188 300 -203 q 267 -145 267 -172 q 284 -102 267 -117 m 390 -264 q 390 -251 390 -264 q 407 -221 390 -237 q 453 -205 424 -205 q 500 -221 483 -205 q 517 -264 517 -237 q 500 -307 517 -291 q 453 -323 483 -323 q 407 -307 424 -323 q 390 -264 390 -292 m 515 -383 q 515 -369 515 -383 q 532 -340 515 -355 q 579 -324 549 -324 q 626 -340 608 -324 q 644 -383 644 -357 q 626 -426 644 -410 q 578 -441 608 -441 q 532 -426 549 -441 q 515 -383 515 -411 z "},"ּ":{"ha":0,"x_min":362,"x_max":490,"o":"m 362 445 q 362 459 362 445 q 379 488 362 473 q 426 504 396 504 q 473 488 455 504 q 490 445 490 471 q 473 402 490 418 q 425 387 455 387 q 379 402 395 387 q 362 445 362 417 z "},"ֽ":{"ha":852,"x_min":391,"x_max":460,"o":"m 460 -345 l 391 -345 l 391 -106 l 460 -106 l 460 -345 z "},"־":{"ha":447,"x_min":41,"x_max":406,"o":"m 406 705 l 41 705 l 41 875 l 406 875 l 406 705 z "},"ׁ":{"ha":0,"x_min":327,"x_max":455,"o":"m 327 1015 q 327 1028 327 1015 q 344 1058 327 1042 q 390 1074 361 1074 q 437 1057 420 1074 q 455 1015 455 1041 q 437 972 455 988 q 390 956 420 956 q 343 971 360 956 q 327 1015 327 987 z "},"ׂ":{"ha":0,"x_min":363,"x_max":491,"o":"m 363 1015 q 363 1028 363 1015 q 380 1058 363 1042 q 426 1074 397 1074 q 473 1057 456 1074 q 491 1015 491 1041 q 473 972 491 988 q 426 956 456 956 q 379 971 396 956 q 363 1015 363 987 z "},"ׇ":{"ha":0,"x_min":75,"x_max":353,"o":"m 353 -142 l 244 -142 l 244 -301 l 181 -301 l 181 -142 l 75 -142 l 75 -75 l 353 -75 l 353 -142 z "},"א":{"ha":901,"x_min":62,"x_max":839,"o":"m 819 875 l 819 562 q 774 388 819 447 q 722 342 755 364 q 644 307 689 320 l 839 0 l 604 0 l 343 433 q 299 391 311 420 q 286 315 286 363 l 286 0 l 79 0 l 79 313 q 82 373 79 347 q 96 431 85 399 q 125 487 106 463 q 177 533 144 511 q 257 568 211 555 l 62 875 l 297 875 l 473 575 l 558 441 q 600 484 588 455 q 613 559 612 512 l 613 875 l 819 875 z "},"ב":{"ha":802,"x_min":69,"x_max":769,"o":"m 316 888 q 608 804 536 888 q 656 704 646 758 q 669 572 669 646 l 669 158 l 769 158 l 769 0 l 69 0 l 69 158 l 462 158 l 462 572 q 290 729 462 729 q 102 717 202 729 l 69 713 l 69 876 q 316 888 169 888 z "},"ג":{"ha":645,"x_min":47,"x_max":541,"o":"m 264 36 q 252 26 264 36 q 200 2 240 17 q 125 -14 160 -14 q 47 -6 90 -14 l 62 186 q 80 182 64 184 q 112 180 96 180 q 154 181 127 180 q 218 194 180 182 q 302 258 271 211 q 334 369 334 306 l 334 616 q 296 715 334 694 q 252 725 279 725 q 151 713 195 725 l 135 709 l 135 873 q 270 888 195 888 q 393 874 345 888 q 470 837 441 860 q 514 778 498 814 q 535 704 530 741 q 541 616 541 667 l 541 0 l 384 0 l 353 127 l 343 127 q 311 81 333 107 q 264 36 288 54 z "},"ד":{"ha":760,"x_min":29,"x_max":728,"o":"m 728 875 l 728 725 q 669 693 700 714 q 622 633 635 668 q 609 543 609 599 l 609 0 l 402 0 l 402 548 q 413 616 402 585 q 438 663 423 646 q 494 708 469 699 l 505 712 l 505 717 l 29 717 l 29 875 l 728 875 z "},"ה":{"ha":912,"x_min":109,"x_max":808,"o":"m 260 879 q 311 884 260 879 q 446 888 362 888 q 587 879 530 888 q 683 850 644 869 q 746 805 722 830 q 785 741 771 779 q 803 664 798 703 q 808 572 808 625 l 808 0 l 600 0 l 600 572 q 428 729 600 729 q 287 723 367 729 q 157 709 207 716 l 109 703 l 109 859 q 260 879 158 870 m 316 0 l 109 0 l 109 558 l 316 558 l 316 0 z "},"ו":{"ha":424,"x_min":109,"x_max":315,"o":"m 315 0 l 109 0 l 109 875 l 315 875 l 315 0 z "},"ז":{"ha":475,"x_min":76,"x_max":444,"o":"m 444 875 l 444 717 q 384 647 411 691 q 342 560 357 602 q 322 466 328 518 q 316 386 317 414 q 315 294 315 357 l 315 0 l 108 0 l 108 294 q 144 528 108 437 q 217 656 179 617 q 279 707 257 696 l 289 712 l 289 717 l 76 717 l 76 875 l 444 875 z "},"ח":{"ha":912,"x_min":109,"x_max":808,"o":"m 109 0 l 109 859 q 260 879 158 870 q 446 888 362 888 q 587 879 530 888 q 683 850 644 869 q 746 805 722 830 q 785 741 771 779 q 803 664 798 703 q 808 572 808 625 l 808 0 l 600 0 l 600 572 q 428 729 600 729 q 316 724 381 729 l 316 0 l 109 0 z "},"ט":{"ha":902,"x_min":104,"x_max":840,"o":"m 538 888 q 708 848 644 888 q 840 437 840 766 q 742 103 840 219 q 463 -14 645 -14 q 323 16 388 -14 q 209 102 258 46 q 132 244 160 158 q 104 437 104 330 l 104 873 l 313 873 l 313 437 q 351 223 313 294 q 470 153 389 153 q 591 220 551 153 q 631 437 631 287 q 609 649 631 582 q 536 719 591 706 q 475 724 513 724 l 432 721 l 432 873 q 538 888 481 888 z "},"י":{"ha":401,"x_min":100,"x_max":307,"o":"m 100 296 l 100 875 l 307 875 l 307 471 l 169 296 l 100 296 z "},"ך":{"ha":741,"x_min":29,"x_max":637,"o":"m 283 888 q 426 865 363 888 q 527 804 488 842 q 591 713 566 766 q 637 488 637 618 l 637 -334 l 429 -334 l 429 509 q 342 712 429 668 q 257 729 307 729 q 29 714 171 729 l 29 873 q 283 888 150 888 z "},"כ":{"ha":715,"x_min":45,"x_max":652,"o":"m 299 888 q 441 865 379 888 q 543 804 504 842 q 607 713 582 766 q 652 488 652 618 l 652 387 q 644 269 652 323 q 613 161 636 216 q 551 70 589 107 q 449 10 513 33 q 299 -14 385 -14 q 45 5 144 -14 l 45 167 q 273 153 155 153 q 423 240 387 153 q 445 366 445 290 l 445 509 q 357 712 445 668 q 273 729 322 729 q 45 714 186 729 l 45 873 q 299 888 165 888 z "},"ל":{"ha":756,"x_min":47,"x_max":715,"o":"m 254 875 l 715 875 l 715 741 l 596 325 l 523 0 l 321 0 l 395 325 l 507 717 l 47 717 l 47 1055 l 254 1055 l 254 875 z "},"ם":{"ha":912,"x_min":109,"x_max":808,"o":"m 109 0 l 109 859 q 260 879 158 870 q 454 888 362 888 q 725 827 643 888 q 808 631 808 766 l 808 0 l 109 0 m 600 158 l 600 631 q 552 712 600 693 q 428 729 510 729 q 316 724 381 729 l 316 158 l 600 158 z "},"מ":{"ha":958,"x_min":69,"x_max":854,"o":"m 123 617 q 73 876 123 739 l 271 876 q 292 814 281 849 l 310 741 l 323 741 q 331 757 326 747 q 358 792 336 767 q 408 837 380 818 q 482 872 435 857 q 588 888 529 888 q 694 866 646 888 q 772 807 743 844 q 821 718 802 770 q 854 495 854 627 l 854 0 l 479 0 l 479 158 l 642 158 l 642 471 q 620 642 642 592 q 594 684 610 664 q 495 724 563 724 q 434 710 464 724 q 385 674 405 695 q 330 598 345 631 l 323 583 l 271 0 l 69 0 l 120 555 q 123 617 123 587 z "},"ן":{"ha":408,"x_min":50,"x_max":304,"o":"m 256 875 q 304 559 304 736 l 304 -334 l 97 -334 l 97 559 q 50 875 97 736 l 256 875 z "},"נ":{"ha":596,"x_min":62,"x_max":492,"o":"m 102 876 q 226 888 160 888 q 338 874 292 888 q 414 837 385 861 q 460 777 443 813 q 492 616 492 715 l 492 260 q 483 131 492 196 q 467 33 475 66 l 458 0 l 62 0 l 62 158 l 273 158 q 285 314 285 210 l 285 616 q 247 715 285 694 q 205 725 230 725 q 102 713 153 725 l 102 876 z "},"ס":{"ha":860,"x_min":62,"x_max":798,"o":"m 430 888 q 701 770 604 888 q 798 438 798 651 q 700 106 798 225 q 431 -14 602 -14 q 161 105 260 -14 q 62 437 62 224 q 94 598 62 519 q 165 713 126 677 l 165 719 l 76 713 l 76 869 q 430 888 233 888 m 273 437 q 430 151 273 151 q 587 440 587 151 q 430 729 587 729 l 353 728 q 273 437 273 616 z "},"ע":{"ha":880,"x_min":47,"x_max":810,"o":"m 392 480 l 446 203 q 531 301 501 237 q 570 465 561 364 l 606 874 l 810 874 l 777 494 q 734 294 766 372 q 325 0 637 54 l 47 -41 l 47 119 l 271 153 l 79 875 l 286 875 l 392 480 z "},"ף":{"ha":888,"x_min":47,"x_max":783,"o":"m 47 578 q 70 703 47 648 q 129 792 93 758 q 214 849 165 827 q 416 890 302 890 q 631 831 545 890 q 691 774 662 809 q 739 692 720 739 q 783 438 783 591 l 783 -334 l 572 -334 l 572 438 q 558 607 572 556 q 513 690 541 666 q 416 724 474 724 q 341 711 373 724 q 295 682 310 699 q 270 644 279 666 q 258 583 258 614 q 271 525 258 552 q 304 483 284 498 q 372 448 341 454 l 398 444 l 363 289 l 328 294 q 185 328 233 306 q 47 578 47 391 z "},"פ":{"ha":861,"x_min":62,"x_max":798,"o":"m 62 578 q 85 703 62 648 q 144 792 108 758 q 229 848 180 826 q 431 888 317 888 q 533 878 486 888 q 631 838 581 868 q 717 760 682 808 q 775 629 753 711 q 798 453 798 547 q 788 295 798 359 q 760 184 778 230 q 715 102 742 138 q 657 45 688 67 q 589 10 627 24 q 432 -14 522 -14 q 264 -9 343 -14 q 149 1 185 -4 l 114 5 l 114 157 q 431 145 270 145 q 528 179 490 145 q 573 267 556 205 q 586 356 585 309 q 587 438 587 404 q 587 496 587 473 q 583 552 586 519 q 573 607 579 585 q 555 653 567 629 q 528 690 544 677 q 431 724 489 724 q 356 711 388 724 q 310 682 325 699 q 285 644 294 666 q 273 583 273 614 q 286 525 273 552 q 319 483 299 498 q 387 448 356 454 l 413 444 l 378 289 l 342 294 q 200 328 248 306 q 62 578 62 391 z "},"ץ":{"ha":795,"x_min":5,"x_max":726,"o":"m 726 875 l 726 562 q 647 351 726 421 q 571 311 618 326 q 460 295 523 295 q 406 298 433 295 l 406 -334 l 199 -334 l 199 391 l 5 875 l 232 875 l 380 448 l 382 438 q 418 436 403 436 q 496 465 472 436 q 519 559 519 493 l 519 875 l 726 875 z "},"צ":{"ha":864,"x_min":44,"x_max":802,"o":"m 798 0 l 51 0 l 51 158 l 389 158 l 543 149 l 543 151 l 353 389 l 44 875 l 276 875 l 520 481 q 581 683 568 549 l 597 874 l 802 874 l 787 713 q 755 541 777 597 q 728 475 745 512 q 624 342 696 404 l 798 119 l 798 0 z "},"ק":{"ha":888,"x_min":109,"x_max":847,"o":"m 629 23 l 629 0 l 424 0 l 424 23 q 441 175 424 78 q 485 342 459 271 l 621 717 l 109 717 l 109 875 l 847 875 l 847 750 l 700 351 q 629 23 629 159 m 301 -334 l 109 -334 l 109 524 l 301 524 l 301 -334 z "},"ר":{"ha":734,"x_min":29,"x_max":629,"o":"m 29 874 q 254 888 156 888 q 409 879 352 888 q 505 850 466 869 q 568 805 543 830 q 606 741 593 779 q 625 664 620 703 q 629 572 629 625 l 629 0 l 422 0 l 422 572 q 250 729 422 729 q 29 715 163 729 l 29 874 z "},"ש":{"ha":1088,"x_min":69,"x_max":1027,"o":"m 539 0 l 143 0 l 69 875 l 267 875 l 304 437 q 324 436 312 436 q 404 465 378 436 q 435 559 430 493 l 461 875 l 658 875 l 633 562 q 355 295 612 295 q 316 296 340 295 l 328 158 l 549 158 q 723 246 662 158 q 797 489 784 334 l 829 875 l 1027 875 l 995 494 q 960 296 984 371 q 539 0 867 0 z "},"ת":{"ha":973,"x_min":47,"x_max":869,"o":"m 328 38 q 253 0 299 14 q 149 -14 206 -14 q 47 5 92 -14 l 47 162 q 119 150 93 150 q 161 159 144 150 q 186 186 178 169 q 199 259 199 216 l 199 712 l 101 703 l 101 859 q 515 888 309 888 q 744 850 668 888 q 807 805 783 830 q 846 741 832 779 q 864 664 859 703 q 869 572 869 625 l 869 0 l 661 0 l 661 572 q 489 729 661 729 q 406 727 451 729 l 406 259 q 328 38 406 102 z "},"׳":{"ha":301,"x_min":17,"x_max":285,"o":"m 275 875 l 285 860 q 165 535 251 725 l 17 535 q 85 875 62 728 l 275 875 z "},"״":{"ha":618,"x_min":17,"x_max":602,"o":"m 275 875 l 285 860 q 165 535 251 725 l 17 535 q 85 875 62 728 l 275 875 m 591 875 l 602 860 q 482 535 568 725 l 334 535 q 401 875 379 728 l 591 875 z "},"–":{"ha":694,"x_min":56,"x_max":639,"o":"m 639 296 l 56 296 l 56 452 l 639 452 l 639 296 z "},"—":{"ha":1389,"x_min":56,"x_max":1333,"o":"m 1333 296 l 56 296 l 56 452 l 1333 452 l 1333 296 z "},"‘":{"ha":301,"x_min":17,"x_max":285,"o":"m 17 666 q 136 991 52 808 l 285 991 q 216 652 239 807 l 26 652 l 17 666 z "},"’":{"ha":301,"x_min":17,"x_max":285,"o":"m 275 991 l 285 977 q 165 652 252 844 l 17 652 q 85 991 63 848 l 275 991 z "},"‚":{"ha":404,"x_min":43,"x_max":311,"o":"m 301 161 l 311 146 q 192 -179 275 7 l 43 -179 q 111 161 87 3 l 301 161 z "},"“":{"ha":618,"x_min":17,"x_max":602,"o":"m 17 666 q 136 991 52 808 l 285 991 q 216 652 239 807 l 26 652 l 17 666 m 453 991 l 602 991 q 533 652 556 807 l 343 652 l 334 666 q 382 820 349 728 q 453 991 416 913 z "},"”":{"ha":618,"x_min":17,"x_max":602,"o":"m 275 991 l 285 977 q 165 652 252 844 l 17 652 q 85 991 63 848 l 275 991 m 591 991 l 602 977 q 482 652 568 844 l 334 652 q 401 991 380 848 l 591 991 z "},"„":{"ha":720,"x_min":43,"x_max":628,"o":"m 301 161 l 311 146 q 192 -179 275 7 l 43 -179 q 111 161 87 3 l 301 161 m 618 161 l 628 146 q 509 -179 592 7 l 359 -179 q 428 161 404 3 l 618 161 z "},"†":{"ha":717,"x_min":83,"x_max":633,"o":"m 408 772 l 633 793 l 633 629 l 408 650 l 446 0 l 257 0 l 294 650 l 83 629 l 83 793 l 294 772 l 257 1055 l 446 1055 l 408 772 z "},"‡":{"ha":730,"x_min":83,"x_max":647,"o":"m 422 800 l 647 821 l 647 656 l 422 677 l 454 533 l 422 378 l 647 399 l 647 235 l 422 256 l 460 0 l 271 0 l 309 256 l 83 235 l 83 399 l 309 378 l 277 533 l 309 677 l 83 656 l 83 821 l 309 800 l 271 1055 l 460 1055 l 422 800 z "},"•":{"ha":522,"x_min":66,"x_max":456,"o":"m 66 508 q 66 559 66 508 q 116 667 66 611 q 261 722 167 722 q 405 667 355 722 q 456 508 456 611 q 405 348 456 404 q 260 292 353 292 q 117 348 168 292 q 66 508 66 404 z "},"…":{"ha":1187,"x_min":79,"x_max":1108,"o":"m 79 98 q 79 126 79 98 q 110 183 79 154 q 198 212 140 212 q 286 182 255 212 q 317 98 317 153 q 285 13 317 43 q 198 -18 254 -18 q 111 12 142 -18 q 79 98 79 42 m 595 212 q 682 182 651 212 q 713 98 713 152 q 681 13 713 43 q 593 -18 650 -18 q 506 12 537 -18 q 475 97 475 42 q 595 212 475 212 m 871 98 q 871 126 871 98 q 901 183 871 154 q 989 212 932 212 q 1077 182 1046 212 q 1108 98 1108 153 q 1077 13 1108 43 q 989 -18 1045 -18 q 902 12 933 -18 q 871 98 871 42 z "},"‰":{"ha":1779,"x_min":43,"x_max":1736,"o":"m 277 1006 q 453 925 391 1006 q 514 693 514 845 q 454 462 514 541 q 279 383 394 383 q 103 464 164 383 q 43 696 43 545 q 277 1006 43 1006 m 431 0 l 268 0 l 818 991 l 981 991 l 431 0 m 278 864 q 229 823 244 864 q 214 694 214 781 q 229 566 214 608 q 278 524 244 524 q 343 694 343 524 q 278 864 343 864 m 971 610 q 1147 529 1086 610 q 1208 297 1208 449 q 1148 66 1208 145 q 973 -12 1088 -12 q 798 68 859 -12 q 737 300 737 149 q 971 610 737 610 m 1499 610 q 1675 529 1613 610 q 1736 300 1736 449 q 1499 -12 1736 -12 q 1326 68 1387 -12 q 1265 300 1265 149 q 1499 610 1265 610 m 972 468 q 923 427 939 468 q 908 298 908 385 q 923 170 908 212 q 972 127 939 127 q 1038 298 1038 127 q 972 468 1038 468 m 1500 468 q 1451 427 1466 468 q 1436 298 1436 386 q 1451 169 1436 211 q 1500 127 1466 127 q 1565 298 1565 127 q 1500 468 1565 468 z "},"‹":{"ha":511,"x_min":56,"x_max":456,"o":"m 456 616 l 267 380 l 456 144 l 307 63 l 56 371 l 56 389 l 307 697 l 456 616 z "},"›":{"ha":511,"x_min":56,"x_max":456,"o":"m 456 389 l 456 371 l 204 63 l 56 144 l 244 380 l 56 616 l 204 697 l 456 389 z "},"₪":{"ha":1374,"x_min":109,"x_max":1272,"o":"m 109 875 l 538 875 q 796 834 694 875 q 871 786 840 817 q 918 727 901 755 q 942 655 934 699 q 953 577 951 610 q 955 493 955 545 l 955 314 l 757 314 l 757 493 q 748 600 757 559 q 713 668 739 640 q 647 706 688 695 q 538 717 605 717 l 315 717 l 315 0 l 109 0 l 109 875 m 1272 875 l 1272 526 q 1200 227 1272 358 q 1133 139 1175 181 q 1039 66 1091 96 q 912 18 986 36 q 751 0 838 0 l 433 0 l 433 561 l 639 561 l 639 158 l 750 158 q 891 188 828 158 q 993 269 954 217 q 1074 526 1074 374 l 1074 875 l 1272 875 z "},"€":{"ha":793,"x_min":45,"x_max":783,"o":"m 45 644 l 135 644 q 270 904 161 809 q 545 999 380 999 q 783 943 673 999 l 717 786 q 539 831 616 831 q 408 783 461 831 q 339 644 355 735 l 612 644 l 612 525 l 329 525 l 328 501 l 328 469 l 329 447 l 570 447 l 570 326 l 340 326 q 558 161 375 161 q 745 200 655 161 l 745 26 q 546 -14 666 -14 q 272 77 379 -14 q 138 326 165 168 l 45 326 l 45 447 l 125 447 q 122 489 122 460 l 123 525 l 45 525 l 45 644 z "},"™":{"ha":1040,"x_min":11,"x_max":978,"o":"m 393 890 l 258 890 l 258 503 l 144 503 l 144 890 l 11 890 l 11 991 l 393 991 l 393 890 m 978 503 l 864 503 l 864 779 l 867 861 l 863 861 l 745 503 l 648 503 l 536 861 l 532 861 l 534 786 l 534 503 l 424 503 l 424 991 l 591 991 l 700 646 l 815 991 l 978 991 l 978 503 z "},"שׁ":{"ha":1088,"x_min":69,"x_max":1063,"o":"m 935 1043 q 935 1057 935 1043 q 952 1086 935 1071 q 999 1102 969 1102 q 1046 1086 1028 1102 q 1063 1043 1063 1069 q 1046 1001 1063 1017 q 998 985 1028 985 q 952 1000 968 985 q 935 1043 935 1015 m 539 0 l 143 0 l 69 875 l 267 875 l 304 437 q 324 436 312 436 q 404 465 378 436 q 435 559 430 493 l 461 875 l 658 875 l 633 562 q 355 295 612 295 q 316 296 340 295 l 328 158 l 549 158 q 723 246 662 158 q 797 489 784 334 l 829 875 l 1027 875 l 995 494 q 960 296 984 371 q 539 0 867 0 z "},"שׂ":{"ha":1088,"x_min":35,"x_max":1027,"o":"m 35 1043 q 35 1057 35 1043 q 52 1086 35 1071 q 99 1102 69 1102 q 146 1086 128 1102 q 163 1043 163 1069 q 146 1001 163 1017 q 98 985 128 985 q 52 1000 68 985 q 35 1043 35 1015 m 539 0 l 143 0 l 69 875 l 267 875 l 304 437 q 324 436 312 436 q 404 465 378 436 q 435 559 430 493 l 461 875 l 658 875 l 633 562 q 355 295 612 295 q 316 296 340 295 l 328 158 l 549 158 q 723 246 662 158 q 797 489 784 334 l 829 875 l 1027 875 l 995 494 q 960 296 984 371 q 539 0 867 0 z "},"שּׁ":{"ha":1088,"x_min":69,"x_max":1063,"o":"m 935 1043 q 935 1057 935 1043 q 952 1086 935 1071 q 999 1102 969 1102 q 1046 1086 1028 1102 q 1063 1043 1063 1069 q 1046 1001 1063 1017 q 998 985 1028 985 q 952 1000 968 985 q 935 1043 935 1015 m 539 0 l 143 0 l 69 875 l 267 875 l 304 437 q 324 436 312 436 q 404 465 378 436 q 435 559 430 493 l 461 875 l 658 875 l 633 562 q 355 295 612 295 q 316 296 340 295 l 328 158 l 549 158 q 723 246 662 158 q 797 489 784 334 l 829 875 l 1027 875 l 995 494 q 960 296 984 371 q 539 0 867 0 m 551 286 q 551 299 551 286 q 568 329 551 313 q 614 345 585 345 q 661 328 644 345 q 679 286 679 312 q 661 243 679 259 q 614 227 644 227 q 567 242 584 227 q 551 286 551 258 z "},"שּׂ":{"ha":1088,"x_min":35,"x_max":1027,"o":"m 35 1043 q 35 1057 35 1043 q 52 1086 35 1071 q 99 1102 69 1102 q 146 1086 128 1102 q 163 1043 163 1069 q 146 1001 163 1017 q 98 985 128 985 q 52 1000 68 985 q 35 1043 35 1015 m 539 0 l 143 0 l 69 875 l 267 875 l 304 437 q 324 436 312 436 q 404 465 378 436 q 435 559 430 493 l 461 875 l 658 875 l 633 562 q 355 295 612 295 q 316 296 340 295 l 328 158 l 549 158 q 723 246 662 158 q 797 489 784 334 l 829 875 l 1027 875 l 995 494 q 960 296 984 371 q 539 0 867 0 m 551 286 q 551 299 551 286 q 568 329 551 313 q 614 345 585 345 q 661 328 644 345 q 679 286 679 312 q 661 243 679 259 q 614 227 644 227 q 567 242 584 227 q 551 286 551 258 z "},"אַ":{"ha":901,"x_min":62,"x_max":839,"o":"m 819 875 l 819 562 q 774 388 819 447 q 722 342 755 364 q 644 307 689 320 l 839 0 l 604 0 l 343 433 q 299 391 311 420 q 286 315 286 363 l 286 0 l 79 0 l 79 313 q 82 373 79 347 q 96 431 85 399 q 125 487 106 463 q 177 533 144 511 q 257 568 211 555 l 62 875 l 297 875 l 473 575 l 558 441 q 600 484 588 455 q 613 559 612 512 l 613 875 l 819 875 m 585 -169 l 318 -169 l 318 -90 l 585 -90 l 585 -169 z "},"אָ":{"ha":901,"x_min":62,"x_max":839,"o":"m 819 875 l 819 562 q 774 388 819 447 q 722 342 755 364 q 644 307 689 320 l 839 0 l 604 0 l 343 433 q 299 391 311 420 q 286 315 286 363 l 286 0 l 79 0 l 79 313 q 82 373 79 347 q 96 431 85 399 q 125 487 106 463 q 177 533 144 511 q 257 568 211 555 l 62 875 l 297 875 l 473 575 l 558 441 q 600 484 588 455 q 613 559 612 512 l 613 875 l 819 875 m 581 -183 l 489 -183 l 489 -320 l 414 -320 l 414 -183 l 322 -183 l 322 -104 l 581 -104 l 581 -183 z "},"אּ":{"ha":901,"x_min":62,"x_max":839,"o":"m 819 875 l 819 562 q 774 388 819 447 q 722 342 755 364 q 644 307 689 320 l 839 0 l 604 0 l 343 433 q 299 391 311 420 q 286 315 286 363 l 286 0 l 79 0 l 79 313 q 82 373 79 347 q 96 431 85 399 q 125 487 106 463 q 177 533 144 511 q 257 568 211 555 l 62 875 l 297 875 l 473 575 l 558 441 q 600 484 588 455 q 613 559 612 512 l 613 875 l 819 875 m 347 144 q 347 158 347 144 q 364 188 347 172 q 411 203 381 203 q 458 187 440 203 q 475 144 475 171 q 458 102 475 118 q 410 86 440 86 q 364 101 380 86 q 347 144 347 117 z "},"בּ":{"ha":802,"x_min":69,"x_max":769,"o":"m 316 888 q 608 804 536 888 q 656 704 646 758 q 669 572 669 646 l 669 158 l 769 158 l 769 0 l 69 0 l 69 158 l 462 158 l 462 572 q 290 729 462 729 q 102 717 202 729 l 69 713 l 69 876 q 316 888 169 888 m 195 456 q 195 470 195 456 q 212 500 195 484 q 259 515 229 515 q 306 499 288 515 q 323 456 323 483 q 306 414 323 430 q 258 398 288 398 q 212 413 229 398 q 195 456 195 429 z "},"גּ":{"ha":645,"x_min":47,"x_max":541,"o":"m 264 36 q 252 26 264 36 q 200 2 240 17 q 125 -14 160 -14 q 47 -6 90 -14 l 62 186 q 80 182 64 184 q 112 180 96 180 q 154 181 127 180 q 218 194 180 182 q 302 258 271 211 q 334 369 334 306 l 334 616 q 296 715 334 694 q 252 725 279 725 q 151 713 195 725 l 135 709 l 135 873 q 270 888 195 888 q 393 874 345 888 q 470 837 441 860 q 514 778 498 814 q 535 704 530 741 q 541 616 541 667 l 541 0 l 384 0 l 353 127 l 343 127 q 311 81 333 107 q 264 36 288 54 m 144 456 q 144 470 144 456 q 161 500 144 484 q 207 515 178 515 q 254 499 237 515 q 272 456 272 483 q 254 414 272 430 q 207 398 237 398 q 160 413 177 398 q 144 456 144 429 z "},"דּ":{"ha":760,"x_min":29,"x_max":728,"o":"m 728 875 l 728 725 q 669 693 700 714 q 622 633 635 668 q 609 543 609 599 l 609 0 l 402 0 l 402 548 q 413 616 402 585 q 438 663 423 646 q 494 708 469 699 l 505 712 l 505 717 l 29 717 l 29 875 l 728 875 m 179 456 q 179 470 179 456 q 196 500 179 484 q 242 515 213 515 q 290 499 272 515 q 307 456 307 483 q 290 414 307 430 q 242 398 272 398 q 196 413 212 398 q 179 456 179 429 z "},"הּ":{"ha":912,"x_min":109,"x_max":808,"o":"m 260 879 q 311 884 260 879 q 446 888 362 888 q 587 879 530 888 q 683 850 644 869 q 746 805 722 830 q 785 741 771 779 q 803 664 798 703 q 808 572 808 625 l 808 0 l 600 0 l 600 572 q 428 729 600 729 q 287 723 367 729 q 157 709 207 716 l 109 703 l 109 859 q 260 879 158 870 m 109 0 l 109 558 l 316 558 l 316 0 l 109 0 m 393 456 q 393 470 393 456 q 410 500 393 484 q 456 515 427 515 q 503 499 486 515 q 521 456 521 483 q 503 414 521 430 q 456 398 486 398 q 409 413 426 398 q 393 456 393 429 z "},"וּ":{"ha":424,"x_min":-42,"x_max":315,"o":"m 109 0 l 109 875 l 315 875 l 315 0 l 109 0 m -42 456 q -42 470 -42 456 q -25 500 -42 484 q 21 515 -8 515 q 68 499 51 515 q 86 456 86 483 q 68 414 86 430 q 21 398 51 398 q -25 413 -9 398 q -42 456 -42 429 z "},"זּ":{"ha":475,"x_min":-53,"x_max":444,"o":"m 444 875 l 444 717 q 384 647 411 691 q 342 560 357 602 q 322 466 328 518 q 316 386 317 414 q 315 294 315 357 l 315 0 l 108 0 l 108 294 q 144 528 108 437 q 217 656 179 617 q 279 707 257 696 l 289 712 l 289 717 l 76 717 l 76 875 l 444 875 m -53 456 q -53 470 -53 456 q -36 500 -53 484 q 11 515 -19 515 q 58 499 40 515 q 75 456 75 483 q 58 414 75 430 q 10 398 40 398 q -36 413 -20 398 q -53 456 -53 429 z "},"טּ":{"ha":902,"x_min":104,"x_max":840,"o":"m 538 888 q 708 848 644 888 q 840 437 840 766 q 742 103 840 219 q 463 -14 645 -14 q 323 16 388 -14 q 209 102 258 46 q 132 244 160 158 q 104 437 104 330 l 104 873 l 313 873 l 313 437 q 351 223 313 294 q 470 153 389 153 q 591 220 551 153 q 631 437 631 287 q 609 649 631 582 q 536 719 591 706 q 475 724 513 724 l 432 721 l 432 873 q 538 888 481 888 m 409 456 q 409 470 409 456 q 426 500 409 484 q 472 515 443 515 q 519 499 502 515 q 537 456 537 483 q 519 414 537 430 q 472 398 502 398 q 426 413 442 398 q 409 456 409 429 z "},"יּ":{"ha":401,"x_min":-45,"x_max":307,"o":"m 100 296 l 100 875 l 307 875 l 307 471 l 169 296 l 100 296 m -45 583 q -45 597 -45 583 q -28 627 -45 611 q 19 642 -11 642 q 66 626 48 642 q 83 583 83 610 q 66 541 83 557 q 18 525 48 525 q -28 540 -12 525 q -45 583 -45 555 z "},"ךּ":{"ha":741,"x_min":29,"x_max":637,"o":"m 283 888 q 426 865 363 888 q 527 804 488 842 q 591 713 566 766 q 637 488 637 618 l 637 -334 l 429 -334 l 429 509 q 342 712 429 668 q 257 729 307 729 q 29 714 171 729 l 29 873 q 283 888 150 888 m 150 456 q 150 470 150 456 q 167 500 150 484 q 213 515 184 515 q 260 499 243 515 q 278 456 278 483 q 260 414 278 430 q 213 398 243 398 q 166 413 183 398 q 150 456 150 429 z "},"כּ":{"ha":715,"x_min":45,"x_max":652,"o":"m 299 888 q 441 865 379 888 q 543 804 504 842 q 607 713 582 766 q 652 488 652 618 l 652 387 q 644 269 652 323 q 613 161 636 216 q 551 70 589 107 q 449 10 513 33 q 299 -14 385 -14 q 45 5 144 -14 l 45 167 q 273 153 155 153 q 423 240 387 153 q 445 366 445 290 l 445 509 q 357 712 445 668 q 273 729 322 729 q 45 714 186 729 l 45 873 q 299 888 165 888 m 172 456 q 172 470 172 456 q 189 500 172 484 q 236 515 206 515 q 283 499 265 515 q 300 456 300 483 q 283 414 300 430 q 235 398 265 398 q 189 413 205 398 q 172 456 172 429 z "},"לּ":{"ha":756,"x_min":47,"x_max":715,"o":"m 715 875 l 715 741 l 596 325 l 523 0 l 321 0 l 395 325 l 507 717 l 47 717 l 47 1055 l 254 1055 l 254 875 l 715 875 m 146 456 q 146 470 146 456 q 163 500 146 484 q 209 515 180 515 q 256 499 239 515 q 274 456 274 483 q 256 414 274 430 q 209 398 239 398 q 162 413 179 398 q 146 456 146 429 z "},"מּ":{"ha":958,"x_min":69,"x_max":854,"o":"m 123 617 q 73 876 123 739 l 271 876 q 292 814 281 849 l 310 741 l 323 741 q 331 757 326 747 q 358 792 336 767 q 408 837 380 818 q 482 872 435 857 q 588 888 529 888 q 694 866 646 888 q 772 807 743 844 q 821 718 802 770 q 854 495 854 627 l 854 0 l 479 0 l 479 158 l 642 158 l 642 471 q 620 642 642 592 q 594 684 610 664 q 495 724 563 724 q 434 710 464 724 q 385 674 405 695 q 330 598 345 631 l 323 583 l 271 0 l 69 0 l 120 555 q 123 617 123 587 m 416 456 q 416 470 416 456 q 433 500 416 484 q 479 515 450 515 q 526 499 509 515 q 544 456 544 483 q 526 414 544 430 q 479 398 509 398 q 432 413 449 398 q 416 456 416 429 z "},"נּ":{"ha":596,"x_min":62,"x_max":492,"o":"m 102 876 q 226 888 160 888 q 338 874 292 888 q 414 837 385 861 q 460 777 443 813 q 492 616 492 715 l 492 260 q 483 131 492 196 q 467 33 475 66 l 458 0 l 62 0 l 62 158 l 273 158 q 285 314 285 210 l 285 616 q 247 715 285 694 q 205 725 230 725 q 102 713 153 725 l 102 876 m 90 456 q 90 470 90 456 q 107 500 90 484 q 154 515 124 515 q 201 499 183 515 q 218 456 218 483 q 201 414 218 430 q 153 398 183 398 q 107 413 123 398 q 90 456 90 429 z "},"סּ":{"ha":860,"x_min":62,"x_max":798,"o":"m 430 888 q 701 770 604 888 q 798 438 798 651 q 700 106 798 225 q 431 -14 602 -14 q 161 105 260 -14 q 62 437 62 224 q 94 598 62 519 q 165 713 126 677 l 165 719 l 76 713 l 76 869 q 430 888 233 888 m 273 437 q 430 151 273 151 q 587 440 587 151 q 430 729 587 729 l 353 728 q 273 437 273 616 m 366 456 q 366 470 366 456 q 383 500 366 484 q 430 515 400 515 q 477 499 459 515 q 494 456 494 483 q 477 414 494 430 q 429 398 459 398 q 383 413 399 398 q 366 456 366 429 z "},"ףּ":{"ha":888,"x_min":47,"x_max":783,"o":"m 47 578 q 70 703 47 648 q 129 792 93 758 q 214 849 165 827 q 416 890 302 890 q 631 831 545 890 q 691 774 662 809 q 739 692 720 739 q 783 438 783 591 l 783 -334 l 572 -334 l 572 438 q 558 607 572 556 q 513 690 541 666 q 416 724 474 724 q 341 711 373 724 q 295 682 310 699 q 270 644 279 666 q 258 583 258 614 q 271 525 258 552 q 304 483 284 498 q 372 448 341 454 l 398 444 l 363 289 l 328 294 q 185 328 233 306 q 47 578 47 391 m 352 592 q 352 606 352 592 q 369 635 352 620 q 415 651 386 651 q 463 635 445 651 q 480 592 480 618 q 463 550 480 566 q 415 534 445 534 q 369 549 385 534 q 352 592 352 564 z "},"פּ":{"ha":861,"x_min":62,"x_max":798,"o":"m 62 578 q 85 703 62 648 q 144 792 108 758 q 229 848 180 826 q 431 888 317 888 q 533 878 486 888 q 631 838 581 868 q 717 760 682 808 q 775 629 753 711 q 798 453 798 547 q 788 295 798 359 q 760 184 778 230 q 715 102 742 138 q 657 45 688 67 q 589 10 627 24 q 432 -14 522 -14 q 264 -9 343 -14 q 149 1 185 -4 l 114 5 l 114 157 q 431 145 270 145 q 528 179 490 145 q 573 267 556 205 q 586 356 585 309 q 587 438 587 404 q 587 496 587 473 q 583 552 586 519 q 573 607 579 585 q 555 653 567 629 q 528 690 544 677 q 431 724 489 724 q 356 711 388 724 q 310 682 325 699 q 285 644 294 666 q 273 583 273 614 q 286 525 273 552 q 319 483 299 498 q 387 448 356 454 l 413 444 l 378 289 l 342 294 q 200 328 248 306 q 62 578 62 391 m 367 594 q 367 608 367 594 q 384 637 367 622 q 430 653 401 653 q 477 637 460 653 q 495 594 495 621 q 477 552 495 568 q 430 536 460 536 q 384 551 400 536 q 367 594 367 566 z "},"צּ":{"ha":864,"x_min":44,"x_max":802,"o":"m 798 0 l 51 0 l 51 158 l 389 158 l 543 149 l 543 151 l 353 389 l 44 875 l 276 875 l 520 481 q 581 683 568 549 l 597 874 l 802 874 l 787 713 q 755 541 777 597 q 728 475 745 512 q 624 342 696 404 l 798 119 l 798 0 m 119 358 q 119 372 119 358 q 136 401 119 386 q 183 417 153 417 q 230 401 212 417 q 248 358 248 385 q 230 316 248 332 q 182 300 212 300 q 136 315 153 300 q 119 358 119 330 z "},"קּ":{"ha":888,"x_min":109,"x_max":847,"o":"m 629 23 l 629 0 l 424 0 l 424 23 q 441 175 424 78 q 485 342 459 271 l 621 717 l 109 717 l 109 875 l 847 875 l 847 750 l 700 351 q 629 23 629 159 m 109 -334 l 109 524 l 301 524 l 301 -334 l 109 -334 m 353 456 q 353 470 353 456 q 370 500 353 484 q 417 515 387 515 q 464 499 446 515 q 481 456 481 483 q 464 414 481 430 q 416 398 446 398 q 370 413 387 398 q 353 456 353 429 z "},"רּ":{"ha":734,"x_min":29,"x_max":629,"o":"m 29 874 q 254 888 156 888 q 409 879 352 888 q 505 850 466 869 q 568 805 543 830 q 606 741 593 779 q 625 664 620 703 q 629 572 629 625 l 629 0 l 422 0 l 422 572 q 250 729 422 729 q 29 715 163 729 l 29 874 m 156 456 q 156 470 156 456 q 173 500 156 484 q 219 515 190 515 q 267 499 249 515 q 284 456 284 483 q 267 414 284 430 q 219 398 249 398 q 173 413 189 398 q 156 456 156 429 z "},"שּ":{"ha":1088,"x_min":69,"x_max":1027,"o":"m 539 0 l 143 0 l 69 875 l 267 875 l 304 437 q 324 436 312 436 q 404 465 378 436 q 435 559 430 493 l 461 875 l 658 875 l 633 562 q 355 295 612 295 q 316 296 340 295 l 328 158 l 549 158 q 723 246 662 158 q 797 489 784 334 l 829 875 l 1027 875 l 995 494 q 960 296 984 371 q 539 0 867 0 m 551 286 q 551 299 551 286 q 568 329 551 313 q 614 345 585 345 q 661 328 644 345 q 679 286 679 312 q 661 243 679 259 q 614 227 644 227 q 567 242 584 227 q 551 286 551 258 z "},"תּ":{"ha":973,"x_min":47,"x_max":869,"o":"m 328 38 q 253 0 299 14 q 149 -14 206 -14 q 47 5 92 -14 l 47 162 q 119 150 93 150 q 161 159 144 150 q 186 186 178 169 q 199 259 199 216 l 199 712 l 101 703 l 101 859 q 515 888 309 888 q 744 850 668 888 q 807 805 783 830 q 846 741 832 779 q 864 664 859 703 q 869 572 869 625 l 869 0 l 661 0 l 661 572 q 489 729 661 729 q 406 727 451 729 l 406 259 q 328 38 406 102 m 471 456 q 471 470 471 456 q 488 500 471 484 q 534 515 505 515 q 581 499 564 515 q 599 456 599 483 q 581 414 599 430 q 534 398 564 398 q 487 413 504 398 q 471 456 471 429 z "},"וֹ":{"ha":424,"x_min":105,"x_max":315,"o":"m 105 1043 q 105 1057 105 1043 q 122 1086 105 1071 q 169 1102 139 1102 q 216 1086 198 1102 q 233 1043 233 1069 q 216 1001 233 1017 q 168 985 198 985 q 122 1000 138 985 q 105 1043 105 1015 m 109 0 l 109 875 l 315 875 l 315 0 l 109 0 z "}," ":{"ha":361,"x_min":0,"x_max":0,"o":""}}}
